<?xml version="1.0" encoding="utf-8"?>
<!-- Generator: Adobe Illustrator 20.1.0, SVG Export Plug-In . SVG Version: 6.00 Build 0)  -->
<svg version="1.1" id="圖層_1" xmlns="http://www.w3.org/2000/svg" xmlns:xlink="http://www.w3.org/1999/xlink" x="0px" y="0px"
	 viewBox="0 0 656.8 124.2" style="enable-background:new 0 0 656.8 124.2;" xml:space="preserve">
<style type="text/css">
	.st0{fill:#FFFFFF;}
	.st1{fill:#CF1126;}
	.st2{fill:#B18855;}
	.st3{opacity:0.9;fill:#FFFFFF;enable-background:new    ;}
</style>
<title>mylogo</title>
<g id="圖層_2">
	<g id="圖層_1-2">
		<path class="st0" d="M17.8,32.3c1.7,0.2,3.3,0.3,5,0.3h5.7c1.5,0,3.1-0.1,4.6-0.2c-0.2,2.2-0.3,4.4-0.2,6.6v13.9
			c1,1.7,2.7,2.9,4.6,3.3c2.1,0.6,5.6,0.9,13,0.9c11.6,0,18.4-0.3,24.3-1.3c-1.2,2.9-1.9,5.9-2.2,9C67.3,65,59,65.1,52,65.1
			c-9.8,0-14.3-0.3-17.2-1.2c-2.5-0.7-4.7-2.1-6.3-4c-2,1.7-4.1,3.2-6.4,4.6c-0.4,0.3-1.2,0.8-1.7,1.2l-3.9-9.4
			c2.7-1.1,5.2-2.6,7.5-4.3V40.8h-2.5c-1.3,0-2.5,0.1-3.8,0.3L17.8,32.3z M24.2,11.2c3.3,2.6,6.3,5.5,9.2,8.6
			c2.2,0.2,4.3,0.3,6.5,0.2h26.3c2.4,0.1,4.7,0,7.1-0.3v6.8c-2.3-0.2-4.7-0.3-7.1-0.2H39.9c-3.1,0-4.7,0.1-6.6,0.2v-2.8l-5.2,4.9
			c-3.3-4.1-6.9-7.8-10.8-11.3L24.2,11.2z M36.2,44.8c0-1.2-0.1-2.5-0.2-3.7c1.7,0.1,2.9,0.2,4.8,0.2h24.7c2,0,3.2-0.1,4.8-0.2
			c-0.1,1.2-0.2,2.4-0.2,3.7v6.5c0,1.3,0.1,2.5,0.2,3.8C68.5,55,68.2,55,65.6,55H40.8c-2.4,0-3.2,0-4.8,0.1c0.1-1.3,0.2-2.4,0.2-3.7
			V44.8z M36.5,11.9c2.4,0.3,4.9,0.4,7.3,0.4h18.7c2.5,0.1,5,0,7.5-0.3v6.8c-1.7-0.2-3.7-0.2-7.1-0.2H43.4c-3.3,0-4.9,0.1-6.9,0.2
			V11.9z M36.8,27.8c2.3,0.2,4.6,0.3,6.9,0.2h18.7c2.4,0.1,4.7,0,7.1-0.2v5.5c-1.2-0.1-1.8-0.1-2.2-0.1c-0.9,0-2.5,0-4.8-0.1H43.7
			c-2.3-0.1-4.6,0-6.9,0.2V27.8z M36.8,34.5c2.3,0.2,4.6,0.3,6.9,0.2h18.7c2.4,0.1,4.7,0,7.1-0.2V40c-1.2-0.1-1.7-0.1-2.2-0.1H66
			l-3.5-0.1H43.7c-3.9,0-5.2,0.1-6.9,0.2V34.5z M45,49.2h16.4V47H45V49.2z"/>
		<path class="st0" d="M109.5,56.6c2.4,0.2,4.8,0.3,7.2,0.3c5.3,0,9.2-0.2,15.5-0.7c-1.1,2.8-1.8,5.8-2.2,8.8
			c-3.8,0.2-6.9,0.2-10.8,0.2c-8.4,0-14.5-0.5-18.8-1.6c-3.9-1-7.5-3.1-10.3-6c-2.2,3.2-5,6.1-8.2,8.4c-1.7-2.7-3.8-5.1-6.2-7.2
			c3.1-1.9,5.7-4.5,7.7-7.5c1.8-2.5,3-5.3,3.6-8.3h-2.6c-2.5,0-4.9,0.1-7.4,0.3V35c2.4,0.3,4.9,0.4,7.4,0.3h39.8
			c2.5,0,4.9-0.1,7.4-0.3v8.2c-2.4-0.3-4.9-0.4-7.4-0.3h-14.6v2.9H121c2.2,0.1,4.4,0,6.6-0.3v7.9c-2.2-0.2-4.4-0.3-6.6-0.3h-11.4
			L109.5,56.6L109.5,56.6z M89.5,33.6c-3.2,0-4.7,0.1-6.6,0.2c0.3-2.2,0.4-4.4,0.3-6.6v-8c0.1-2.2,0-4.4-0.3-6.6
			c2.2,0.2,3.8,0.2,7.5,0.2H118c3.7,0,5.4-0.1,7.5-0.2c-0.3,2.2-0.4,4.4-0.3,6.6v8c-0.1,2.2,0,4.4,0.3,6.6c-1.9-0.1-3.4-0.2-6.6-0.2
			H89.5z M96,44.9c-0.2,0.4-0.2,0.4-1.2,3.4c-0.2,0.8-0.5,1.5-0.8,2.3c1.8,2,4.1,3.5,6.7,4.5V42.9H87.1L96,44.9z M92.2,20.8h24v-2
			h-24V20.8z M92.2,27.9h24v-2h-24V27.9z"/>
		<path class="st0" d="M187.1,40c-0.8,0.9-1.1,1.4-2.3,2.9c-2,2.9-4.3,5.6-6.8,8.1c0.9,1.7,2.1,3.1,3.6,4.3c0.7-1.5,1.1-3.5,1.6-7.1
			c2.1,1.8,4.3,3.3,6.8,4.5c-0.9,5.2-1.6,7.3-3.1,9.8c-0.9,1.7-2.7,2.8-4.6,2.9c-1.9,0-4.8-1.6-7.5-4.3c-1.4-1.3-2.5-2.7-3.5-4.3
			c-3.5,2.7-7.3,5-11.4,6.8c-1.5-2.7-3.3-5.3-5.4-7.6c4.6-1.7,9-4,13-6.9c-1.6-4.3-2.2-7.5-3.1-14.2h-10.2v5
			c2.9-0.6,4.1-0.8,8.2-1.7l0.1,8.1c-4.6,1-6.1,1.4-8.3,1.8v9.3c0,4.4-1,6.4-3.8,7.3c-1.3,0.5-3,0.6-6.2,0.6c-1.6,0-3-0.1-5.3-0.2
			c-0.4-2.9-1.1-5.8-2.2-8.5c2,0.3,4.1,0.4,6.2,0.4c2,0,2.4-0.3,2.4-1.6v-5.8c-1.7,0.2-1.7,0.2-7.2,1.1c-1,0.1-1.9,0.3-2.9,0.5
			l-1.4-9c3.8-0.1,7.6-0.5,11.4-1.1V35h-3.5c-2.6,0-5.1,0.1-7.7,0.3v-9c2.6,0.3,5.1,0.5,7.7,0.4h3.4v-4.6c-3.2,0.5-3.9,0.6-8.2,1
			c-0.7-2.7-1.6-5.4-2.9-7.9c10.3-0.6,18.9-2.3,23.9-4.6l4.2,8l-5.3,1.3c-0.8,0.2-1.3,0.3-2.8,0.6v6.1h9.6c-0.1-2-0.2-4.3-0.3-8.5
			c-0.2-5-0.2-5.2-0.4-6.7h9.6c-0.2,1.2-0.3,1.8-0.3,5.7s0.1,6.1,0.2,9.5h7.5c-2.1-3.7-4.6-7.2-7.5-10.3l6.7-4.1
			c3.1,3.1,5.9,6.5,8.2,10.2l-6.3,4.3h0.8c2.3,0,4.5-0.1,6.8-0.4v8.9c-2.3-0.2-5-0.3-7.7-0.3h-8c0.3,2.6,0.7,5.1,1.4,7.6
			c2.6-3.2,3.9-5.2,4.7-7.3L187.1,40z"/>
		<path class="st0" d="M226,51c-1.4-5.2-3.5-10.1-6.3-14.7c-0.4,0.3-0.5,0.5-1,1c-0.9-1.1-1.9-2.1-2.9-3v22.4c0,1.9,0.1,3.7,0.2,5.5
			h-8.7v-3.3h-5.6v5.2h-9c0.3-2.7,0.4-5.3,0.4-8v-31c0.1-2.1,0-4.2-0.2-6.4c1.7,0.2,3.4,0.2,5.1,0.2h1.3c1.1-2.6,2-5.4,2.5-8.2
			l9.5,1.1c-1.7,4.1-1.7,4.1-3.1,7.1h2.7c2,0,3.6-0.1,5-0.2c-0.1,0.5-0.1,0.5-0.2,1.8v6.4c2.7-3.7,4.7-7.7,6.2-12
			c0.5-1.3,0.8-2.7,1-4.1l9.5,1.3c-0.4,0.9-0.8,1.9-1.1,2.9c-0.5,1.6-0.7,2-1.1,3.3h11c1.7,0,3.3,0,5-0.2c-0.2,1.3-0.3,2.7-0.3,4
			c0,2.3-0.1,3.7-0.4,18.3c-0.1,5.7-0.6,11.3-1.6,16.9c-1,4.3-2.1,6.1-4.6,7.1c-1.7,0.8-5.1,1.2-8.7,1.2c-1.2,0-2.4,0-4.4-0.1
			c-0.3-3.1-1.1-6.2-2.3-9.1c2.3,0.3,4.6,0.5,6.9,0.5c2.8,0,3.8-0.5,4.3-2.2c1.1-3.2,1.5-11.1,1.6-27.8h-10.5
			c-1.7,3.2-3.9,6.2-6.3,8.9l7.6-3.2c2.8,4.6,5.1,9.5,7.1,14.5L226,51z M201.8,34.7h5.7V27h-5.7V34.7z M201.8,51h5.7v-8.5h-5.7V51z"
			/>
		<path class="st0" d="M427.6,54.3l7.4-8.4c4.5,3.5,9.9,5.4,15.6,5.5c3.6,0,5.5-1.2,5.5-3.1v-0.1c0-2-1.6-2.9-8.1-4.4
			c-10.2-2.2-18.1-4.9-18.1-14.2v-0.1c0-8.4,7-14.5,18.6-14.5c8.1,0,14.5,2.1,19.7,6l-6.6,8.9c-3.9-2.8-8.6-4.3-13.4-4.5
			c-3.2,0-4.8,1.2-4.8,2.9v0.1c0,2.1,1.6,3,8.4,4.4c11,2.3,17.8,5.6,17.8,14.1V47c0,9.3-7.7,14.8-19.4,14.8
			C441.6,61.8,433.6,59.3,427.6,54.3z"/>
		<path class="st0" d="M484.1,26.7h-14.3v-11h42v11h-14.4V61h-13.3L484.1,26.7L484.1,26.7z"/>
		<path class="st0" d="M530.1,44l-18.3-28.4h15.1l9.9,16.5l9.9-16.5h14.8l-18.2,28.2V61H530L530.1,44L530.1,44z"/>
		<path class="st0" d="M562.9,15.6h13.3V50h23.2v11h-36.5V15.6z"/>
		<path class="st0" d="M601.3,15.6h38.5v10.6h-25.4v6.9h23V43h-23v7.2h25.8V61h-38.9L601.3,15.6L601.3,15.6z"/>
		<rect x="257.4" class="st1" width="76.5" height="76.7"/>
		<path class="st0" d="M318.7,45c1.2,0,2.4,0,3.5-0.2v5.7c-1.2-0.1-2.4-0.2-3.5-0.2h-6.2v2h6.2c1.2,0,2.4,0,3.6-0.2v5.7
			c-1.2-0.1-2.4-0.2-3.6-0.2h-6.2v1.9h6.2c1.8,0,3.7,0,5.5-0.3v7.7c-2.3-0.3-4.6-0.4-6.9-0.4h-20.2v2h-9.9c0.3-2.1,0.4-4.3,0.3-6.5
			V49c-1.4-1.9-3.1-3.6-4.9-5.2c3.9-3.3,6.1-6.5,7.4-10.3c-1.7,0.1-2.8,0.1-3.5,0.1c0.1-1.4,0.2-2.8,0.1-4.1V25c0-1.4,0-2.8-0.1-4.2
			c1.3,0.1,2.7,0.2,4.1,0.1h1.2v-2.3h-2.2c-1.2,0-1.6,0-4.4,0.1v9.2c-1-0.1-2.1-0.2-3.2-0.2h-0.8c0.6,1.5,1.3,3,2.1,4.3
			c1,1.8,2.3,3.4,3.9,4.7c-2,2-3.6,4.2-5,6.6c-0.4-0.8-0.8-1.7-1.2-2.6c0.1,2.1,0.1,4.1,0.1,6.5v13.1c0,2.8,0.1,5.6,0.4,8.3h-10
			c0.3-2.8,0.4-5.5,0.4-8.3v-8.2c0-1.6,0.1-4.2,0.2-6.5c-1.7,4.9-3,7.5-5,10.1c-0.6-3.8-1.7-7.5-3.2-11c3.6-5.1,6.1-10.9,7.3-17H270
			c-1.5,0-3.1,0.1-4.6,0.3v-9.6c1.6,0.3,3.1,0.4,4.7,0.3h1.8v-4.2c0-2.3-0.1-4.6-0.4-6.8h10.1c-0.3,2.2-0.4,4.5-0.4,6.7V19h0.5
			c1.2,0,1.7-0.1,2.6-0.1V11c1.7,0.2,3.4,0.3,5.2,0.3h2.2V11c0-1.1-0.1-2.1-0.3-3.2h9.6c-0.2,1.1-0.2,2.1-0.2,3.2v0.3h6.8V11
			c0-1.1,0-2.2-0.2-3.2h9.6c-0.2,1-0.3,2.1-0.3,3.2v0.3h2.3c1.7,0,3.4-0.1,5.2-0.3v8.2c-1.4-0.1-3.2-0.3-5.2-0.3h-2.3v2.3h1.6
			c1.3,0,2.7,0,4-0.1c-0.1,1.3-0.2,2.7-0.1,4v4.8c0,1.4,0,2.8,0.1,4.2c-1.3-0.1-2.7-0.2-4-0.1h-11l7.4,1.3l-1.2,1.7h4
			c1.9,0,3.7,0,5.5-0.3v6.7c-1.6-0.1-2.8-0.2-5.5-0.2h-5.3V45H318.7z M300.8,21.1c0.9,0,1.7-0.1,2.6-0.1c-0.1,1.3-0.2,2.7-0.1,4v4.8
			c0,1.4,0,2.8,0.1,4.2c-1.3-0.1-2.7-0.2-4-0.1h-6.9l6.9,1.4l-0.8,1.6h5.7c0.6-0.9,1-1.9,1.4-3l-0.6,0.1c0.1-1.4,0.2-2.8,0.1-4.1
			v-4.5c0-1.4,0-2.8-0.1-4.2c0.9,0.1,1.7,0.1,2.6,0.1V19h-6.8L300.8,21.1z M293.1,28.6h3.6v-2.3h-3.6V28.6z M303.4,45v-1.9h-6.5V45
			H303.4z M296.9,52.3h6.5v-2h-6.5V52.3z M296.9,57.7v1.9h6.5v-1.9H296.9z M311.7,28.6h3.7v-2.3h-3.7V28.6z"/>
		<rect x="337.4" class="st2" width="76.9" height="76.7"/>
		<path class="st0" d="M405.7,19.9c-2,2.2-4.1,4.2-6.3,6.1c2.1,1.9,4.5,3.5,7,4.8c-1.8,2.9-3.2,6.1-4.2,9.4
			c-1.4-0.8-1.7-1.1-2.8-1.8v9c0,1.7,0,3.3,0.2,5c-0.8-0.1-1.7-0.1-4.3-0.1h-3.9l5.5,1.8c-1,2.2-1.3,2.7-2.1,4.2h2.5
			c2.4,0,4.7-0.1,7.1-0.4v9.2c-2.7-0.3-5.5-0.4-8.2-0.4h-22.8c-2.2,0-4.4,0.1-6.6,0.4v-9c1.5,0.1,3.9,0.3,6.4,0.3h0.5
			c-0.6-1.4-1.4-2.8-2.3-4.1l5.2-1.9h-3c-2.3,0-3.3,0-4.1,0.1c0.2-1.2,0.4-2.4,0.3-3.6v-8.5c0-0.5,0-1.1-0.1-1.6
			c-1,0.7-1.3,1-2.5,1.7c-0.6-1.5-1.2-2.9-2.1-4.3c-1.1-0.1-2.3-0.2-3.4-0.1h-11.1c-1.3,0-2.5,0-3.8,0.1v-7.4
			c1.3,0.1,2.5,0.2,3.8,0.1h11.1c1.2,0,2.4,0,3.6-0.1v1.9c1.7-1.1,3.2-2.3,4.6-3.7c-0.9-1.3-1.8-2.5-2.9-3.6V27
			c-1.7-0.2-3.4-0.3-5.1-0.2h-12c-1.7,0-3.5,0-5.2,0.2v-8.8c1.7,0.3,3.5,0.4,5.2,0.3h11.8c2.7,0,3.6-0.1,5.2-0.2v3l4.5-3.7
			c1.5,1.6,2,2.2,3.2,3.7c0.8-1.2,1.5-2.6,2.1-3.9h-4.6c-1.1,0-2.1,0.1-3.2,0.2V8.9c2,0.3,3.9,0.4,5.9,0.3h8.3
			c1.8,0.1,3.6,0,5.4-0.3c0.1,1.6,0.5,3.1,1.2,4.6c1.7-1.5,3.1-3.3,4.4-5.2l5.8,4.3c-2.1,2.4-4.3,4.7-6.6,6.8l1.4,1.7
			c2-1.6,3.7-3.5,5.2-5.6L405.7,19.9z M354.2,68.3h-8.4c0.1-1.8,0.3-4.2,0.3-6.1V51.8c0-1.6-0.1-3.2-0.3-4.8
			c2.1,0.1,2.5,0.1,4.6,0.1h11.4c1.2,0,2.5,0,3.7-0.2c-0.1,1.4-0.2,2.9-0.1,4.3V62c0,2.6,0.1,4.7,0.2,5.8h-7.7v-2.1h-3.7V68.3z
			 M346.6,9.1c1.9,0.2,3.9,0.3,5.8,0.3h7.5c1.9,0,3.9-0.1,5.8-0.3v7.6c-1.6-0.1-3.1-0.2-5.8-0.2h-7.5c-2.7,0-3.9,0.1-5.8,0.2V9.1z
			 M346.6,37.9c1.3,0.1,2.5,0.2,3.8,0.1h11c1.2,0,2.5,0,3.7-0.1v7.3c-1.3-0.1-2.5-0.2-3.8-0.1h-11c-1.2,0-2.5,0-3.7,0.1V37.9z
			 M354,58h4v-3.7h-4V58z M391.6,33.8c-1.2-0.1-2.3-0.2-3.5-0.1h-7.8c-1,0-1.7,0.1-2.9,0.1v-2.2c-1.4,1.6-2.9,3-4.6,4.4h23.4
			c-1.6-1.4-3.2-2.9-4.7-4.5v2.3H391.6z M378.3,45.6h11.8v-2.8h-11.8V45.6z M380.2,52.4c0.9,1.9,1.7,4,2.3,6h3c0.9-1.9,1.6-4,2.1-6
			H380.2z M387.6,26.4c-1.2-1.9-2.3-3.8-3.3-5.8c-0.9,2-1.9,3.9-3,5.8C381.3,26.4,387.6,26.4,387.6,26.4z"/>
		<rect x="333.8" class="st3" width="3.6" height="76.7"/>
	</g>
</g>
<g>
	<path class="st0" d="M8.9,107.3H6v4.5c0.6-0.2,1.4-0.5,2.4-0.9l0.3,2.3c-1,0.4-1.9,0.8-2.7,1.1v7.3c0,0.6-0.1,1.1-0.4,1.5
		s-0.6,0.6-1,0.7s-1,0.2-1.8,0.2c-0.5,0-1,0-1.6,0l-0.8-2.3h2.8c0.3,0,0.5-0.1,0.5-0.4v-6c-1.3,0.4-2.3,0.7-3,0.9L0,114
		c1.6-0.4,2.8-0.8,3.7-1.1v-5.3H0.2v-2.2h3.5v-4.2H6v4.2h2.9V107.3z M23.5,121.8l-1.1,2c-2.4-0.7-4.6-1.6-6.5-3
		c-1.9,1.2-4.3,2.2-7.1,3l-1.4-2.1c2.5-0.4,4.6-1.2,6.5-2.4c-1.4-1.2-2.5-3-3.4-5.4H9.6v-2.2h12v2c-1,2.3-2.3,4.2-3.9,5.6
		C19,120.2,21,121,23.5,121.8z M23.2,110.3H20c-1.4,0-2.1-0.7-2.1-2.2v-4.7h-4.1c0.1,3.5-1.1,5.9-3.6,7.3L8.5,109
		c1.1-0.6,1.9-1.3,2.3-2c0.4-0.8,0.7-1.8,0.7-3v-2.8h8.7v6.5c0,0.2,0.1,0.3,0.3,0.3h2.7V110.3z M18.9,113.9H13c0.8,2,1.7,3.3,2.9,4
		C17.1,116.9,18.1,115.5,18.9,113.9z"/>
	<path class="st0" d="M49.8,108.9l-1.1,2.1c-0.7-0.1-1.4-0.4-2.3-0.7v9.9H35.3l1.1,1.3c-2.5,1.1-5.4,2-8.8,2.5l-1.1-2.1
		c2.5-0.3,4.9-0.9,7.2-1.7h-3.9v-10h5l-1-1.5c3.1-0.8,5.4-2.2,6.9-4.1l2.4,0.5c-0.3,0.5-0.5,0.8-0.6,0.9
		C44.4,107.3,46.8,108.2,49.8,108.9z M34.4,108.1h-7.7v-2.2h7.7V108.1z M34.1,103.9H27v-2.1h7.1V103.9z M44,113.1v-0.9H32.3v0.9H44z
		 M44,115.8v-1H32.3v1H44z M44,118.5v-1H32.3v1H44z M49.4,104.2c-0.8,1.2-1.6,2.2-2.3,3l-2-1.2c0.2-0.3,0.7-0.8,1.4-1.8h-8.3
		c-0.8,0.9-1.6,1.7-2.3,2.3l-1.8-1.5c1.4-1,2.7-2.5,3.9-4.5l2.2,0.7c-0.1,0.3-0.2,0.6-0.5,0.9h9.7V104.2z M46.2,110.3
		c-1.8-0.6-3.5-1.4-5.2-2.5c-1.1,1-2.5,1.8-4.3,2.5H46.2z M49.7,122.2l-1.3,2c-2.3-0.7-4.9-1.3-7.7-1.6l1.2-2
		C44.7,120.8,47.3,121.4,49.7,122.2z"/>
	<path class="st0" d="M76,112.9H53v-2.3h23V112.9z"/>
	<path class="st0" d="M102.8,121.2l-0.7,2.3c-0.9,0-1.9,0-3,0c-3.8,0-6.3-0.1-7.6-0.3c-1.3-0.2-2.5-0.6-3.6-1.2s-2.2-1.7-3.2-3
		c-0.9,1.8-2.1,3.5-3.5,5l-1.9-1.5c2.7-2.6,4.3-6,4.9-10.2l2.4,0.3c-0.2,1.3-0.5,2.5-0.9,3.8c1.2,2.2,2.7,3.6,4.5,4.2v-10.1h-7v-2.2
		h15.3v2.2h-5.9v3.4h8.1v2.2h-8.1v4.9c2.1,0.2,4.3,0.3,6.7,0.3C100.5,121.3,101.7,121.3,102.8,121.2z M101.8,109.3h-2.4v-4H82.5v4
		H80v-6.1h9.7c-0.3-0.7-0.7-1.3-1.2-2l2.3-0.6c0.5,0.7,1,1.6,1.5,2.6h9.4L101.8,109.3L101.8,109.3z"/>
	<path class="st0" d="M128.8,105.6H116c-0.3,0.7-0.8,1.5-1.4,2.3H127v14.2c0,0.6-0.2,1-0.5,1.4c-0.3,0.3-0.8,0.5-1.4,0.5
		s-1.3,0-1.9,0c-1,0-1.8,0-2.4,0l-1-2.3c1.1,0.1,2.5,0.1,4.3,0.1c0.4,0,0.6-0.2,0.6-0.6v-2.4h-11.8c-0.4,1.9-1.4,3.6-2.7,5.3
		l-2.2-1.3c1.9-2.1,2.8-4,2.8-5.8v-4.2c-1.2,1.2-2.3,2.2-3.5,2.9l-1.7-1.8c3.2-2.1,5.7-4.8,7.6-8.1h-7.3v-2.3h8.6
		c0.6-1,1-1.9,1.2-2.6l2.4,0.4c-0.2,0.7-0.5,1.4-0.9,2.2h11.7L128.8,105.6C128.9,105.6,128.8,105.6,128.8,105.6z M124.6,112.2v-2.1
		h-11.5v2.1H124.6z M124.6,116.4v-2.1h-11.5v2.1H124.6z"/>
	<path class="st0" d="M155.5,118.3c-0.4,3.8-1.3,5.7-2.8,5.7c-1.1,0-1.8-1-2.3-3c-0.4-2-0.6-6-0.6-11.9c0-1.9,0-3.8,0.1-5.7h-13.3
		v9.6c0,4.5-0.9,8.1-2.6,11.1l-1.9-1.5c1.5-2.2,2.2-5.2,2.2-9.1v-12.3h18c-0.2,3.6-0.2,7.1-0.2,10.6c0,3.6,0.1,6,0.3,7.2
		s0.3,1.9,0.4,1.9c0.1,0,0.3-0.5,0.5-1.4c0.2-1,0.3-1.8,0.3-2.6L155.5,118.3z M150.3,123l-2,1c-0.1-0.6-0.3-1.1-0.6-1.6
		c-3.6,0.5-7.2,0.9-10.7,1.2l-0.5-2.2c2.3-0.1,4.3-0.3,5.9-0.5v-3.7h-4.2v-7.9h4.1v-1.8h-4.7v-2.1h11.5v2.1h-4.6v1.8h4v7.9h-4v3.5
		c0.7-0.1,1.4-0.2,2.1-0.3c-0.3-0.7-0.6-1.2-0.8-1.5l1.9-0.9C148.7,119.4,149.6,121.1,150.3,123z M142.3,115.1v-3.7h-1.9v3.7H142.3z
		 M146.4,115.1v-3.7h-1.9v3.7H146.4z"/>
	<path class="st0" d="M165.6,103.6c0,0.1-0.2,0.8-0.5,2s-0.7,2.4-1.1,3.5c1.2,2,1.7,3.9,1.7,5.7c0,1.4-0.3,2.4-0.9,2.9
		c-0.6,0.5-1.3,0.8-2.2,0.8c-0.2,0-0.3,0-0.5,0l-0.5-2.4c0.4,0.1,0.7,0.1,0.9,0.1c0.7,0,1-0.5,1-1.4c0-1.8-0.7-3.7-2-5.7
		c0.7-1.7,1.3-3.5,1.8-5.5h-2.1V124H159v-22.6h6.5v2.2H165.6z M173.3,121.1l-1.5,1.6c-0.8-0.8-1.6-1.6-2.3-2.1
		c-0.8,1.2-1.8,2.3-3,3.5l-1.9-1.4c2.2-2,3.7-3.9,4.5-5.9l2.1,0.6c-0.2,0.4-0.4,0.9-0.7,1.5C171.6,119.5,172.5,120.3,173.3,121.1z
		 M182,106.5l-1.3,2c-0.9-0.5-1.9-1-2.8-1.6v1.6h-8.4v-1.6c-1.2,0.7-2.1,1.3-2.8,1.6l-1.3-1.9c3.5-1.7,6.1-3.6,7.8-5.9l2.3,0.7
		c-0.2,0.3-0.3,0.4-0.3,0.5C176.7,103.5,178.9,105,182,106.5z M173.1,116.4h-6v-6.8h6V116.4z M170.9,114.2v-2.6h-1.6v2.6H170.9z
		 M177,106.2c-1.6-1.2-2.6-2.1-3.2-2.8c-1.2,1.1-2.3,2-3.4,2.8H177z M181.8,122.5l-1.6,1.5c-1.2-1.2-2.3-2.2-3.3-3
		c-0.7,1-1.5,2-2.5,3.1l-1.8-1.4c1.9-2,3.3-4,4-5.9l2.1,0.6l-0.8,1.8C179.7,120.5,181,121.6,181.8,122.5z M180.6,116.4h-6.1v-6.8
		h6.1V116.4z M178.3,114.2v-2.6h-1.7v2.6H178.3z"/>
	<path class="st0" d="M195.7,115.3c-0.7-0.3-1.1-0.8-1.1-1.6c0-0.5,0.2-0.9,0.5-1.2c0.4-0.3,0.8-0.5,1.2-0.5c0.5,0,0.9,0.2,1.2,0.5
		c0.3,0.4,0.5,0.8,0.5,1.3c0,1-0.8,2.1-2.3,3.2l-0.8-0.6C195.4,116,195.6,115.6,195.7,115.3z"/>
	<path class="st0" d="M218.7,117.5h-4.8l1.5,0.9c-0.6,2.2-1.4,4.1-2.3,5.5l-1.9-1.4c1-1.6,1.7-3.3,2.2-5h-1.3v-16h6.6V117.5z
		 M216.5,106.2v-2.5h-2.3v2.5H216.5z M216.5,110.7v-2.5h-2.3v2.5H216.5z M216.5,115.4v-2.6h-2.3v2.6H216.5z M219.7,122.4l-2.1,0.9
		c-0.4-1.4-1-2.9-1.9-4.4l1.9-0.9C218.4,119.1,219.1,120.6,219.7,122.4z M234.4,119.7h-1.7v1.7c0,0.9-0.2,1.5-0.6,1.9
		c-0.4,0.4-1.1,0.6-2.2,0.6c-0.4,0-1,0-1.6-0.1l-0.8-2.2c0.4,0,0.9,0.1,1.4,0.1c0.8,0,1.2,0,1.3-0.1s0.2-0.2,0.2-0.5v-1.4h-7.5v4.2
		h-2.3v-4.2h-1.4v-1.9h1.6v-6.1h5v-1.4h-6.6v-1.9h3.5v-1.2h-2.2v-1.7h2.2v-1.3h-2.8v-1.8h2.8v-1.5h2.3v1.5h3.8v-1.5h2.3v1.5h3.1v1.8
		h-3.1v1.3h2.1v1.7h-2.1v1.3h3.4v1.9h-6.4v1.4h4.7v6.1h1.7L234.4,119.7C234.5,119.7,234.4,119.7,234.4,119.7z M225.7,114.9v-1.2H223
		v1.2H225.7z M225.7,117.9v-1.2H223v1.2H225.7z M228.8,105.4v-1.2H225v1.2H228.8z M228.8,108.5v-1.3H225v1.3H228.8z M230.5,114.9
		v-1.2H228v1.2H230.5z M230.5,117.9v-1.2H228v1.2H230.5z"/>
	<path class="st0" d="M257.6,119.9h-11.9l1.3,1.2c-2.4,1.3-5.2,2.3-8.3,3l-1.1-2.1c2.9-0.7,5.1-1.4,6.7-2.1h-3.4V109h16.7V119.9z
		 M259.4,107.5h-20.3v-6.2h20.3V107.5z M245.1,105.7v-2.5h-3.6v2.5H245.1z M255.2,112.1v-1.2h-11.9v1.2H255.2z M255.2,115v-1.3
		h-11.9v1.3H255.2z M255.2,118.1v-1.4h-11.9v1.4H255.2z M251.1,105.7v-2.5h-3.7v2.5H251.1z M261,121.9l-0.9,2.2
		c-1.7-0.7-4.2-1.3-7.5-1.7l0.9-2.1C256.5,120.7,259,121.2,261,121.9z M257,105.7v-2.5h-3.7v2.5H257z"/>
	<path class="st0" d="M275.6,121.3c0,0.7-0.1,1.2-0.4,1.6s-0.6,0.6-1,0.7s-1.1,0.2-2.2,0.2c-0.5,0-1,0-1.4,0l-0.8-2.3
		c0.4,0,0.8,0.1,1.2,0.1c1,0,1.7,0,2-0.1s0.5-0.2,0.5-0.5v-2.8h-5.1c-0.4,2.4-1.2,4.3-2.4,5.7l-1.9-1.2c1.6-1.6,2.3-4.3,2.3-8.3
		v-6.8h9.2L275.6,121.3L275.6,121.3z M287.3,105.9h-23v-2.2h23V105.9z M274.1,102.3l-2.4,1.1c-1-0.6-2.3-1.2-3.9-1.8l2.4-1.2
		C271.7,100.9,273,101.5,274.1,102.3z M273.5,111.9v-2.2h-4.8v2.2H273.5z M273.5,116.1v-2.2h-4.8v2.2H273.5z M283.3,101.6
		c-1.4,0.8-2.7,1.4-3.8,1.8l-2.4-1.1c1.4-0.6,2.6-1.2,3.7-1.9L283.3,101.6z M280.6,119.3h-2.3v-11.4h2.3V119.3z M285.4,121
		c0,1.1-0.3,1.8-0.8,2.2s-1.4,0.5-2.8,0.5c-0.5,0-1.1,0-1.7-0.1l-0.7-2.3h3.3c0.1,0,0.2-0.1,0.3-0.2c0.1-0.1,0.2-0.3,0.2-0.4v-13.4
		h2.2V121z"/>
	<path class="st0" d="M298.8,105.2h-8.2v-2.1h3c-0.3-0.7-0.6-1.3-1-1.9l2.4-0.7c0.5,0.9,0.9,1.8,1.2,2.6h2.4v2.1H298.8z
		 M298.1,109.1h-6.9v-2.2h6.8v2.2H298.1z M298.1,113h-6.9v-2.2h6.8v2.2H298.1z M298.1,123.3h-2.2v-1.2h-2.3v1.7h-2.4v-9.2h6.8v8.7
		H298.1z M295.8,119.9v-3.1h-2.3v3.1H295.8z M312.4,121.7c0,1.5-0.9,2.2-2.7,2.2c-0.4,0-0.9,0-1.4-0.1l-0.8-2.2h2.1
		c0.4,0,0.5-0.2,0.5-0.6v-1.3h-7.4c-0.3,1.8-1,3.2-1.9,4.3l-1.9-1.4c1.2-1.4,1.8-3.3,1.8-5.8v-5.2h11.7L312.4,121.7L312.4,121.7z
		 M313.6,110.5h-14.5v-2h6v-1.2h-5v-1.8h5v-1.2h-5.6v-1.9h5.6v-1.6h2.3v1.6h5.6v1.9h-5.6v1.2h5v1.8h-5v1.2h6.1v2H313.6z M310.1,118
		v-1.3h-7.2c0,0.7,0,1.1-0.1,1.3H310.1z M310.1,114.9v-1.2H303v1.2H310.1z"/>
	<path class="st0" d="M340.1,118.3c-0.3,2-0.5,3.2-0.7,3.8c-0.2,0.5-0.6,0.9-1.1,1.2s-1.4,0.5-2.7,0.4c-1.3,0-2.2,0-2.7,0
		c-0.9,0-1.6-0.2-2-0.6c-0.5-0.4-0.7-1.1-0.7-2.2v-7.7h-3.8c-0.1,2.9-0.9,5.2-2.1,6.8c-1.3,1.6-3.4,2.9-6.3,4l-1.1-2.2
		c4.8-1.5,7.1-4.3,7.1-8.6h-6.7V111h10.1v-4.1h-5c-1,1.4-1.9,2.5-2.6,3.2l-2.1-1.4c2.1-1.9,3.8-4.4,5.1-7.6l2.3,0.8l-1.3,2.8h3.6
		v-3.8h2.3v3.8h9.1v2.2h-9.1v4.1h10.1v2.2h-7.2v7.6c0,0.3,0.1,0.4,0.3,0.5c0.2,0.1,0.9,0.1,2,0.1c1,0,1.6-0.1,1.8-0.2
		c0.2-0.1,0.5-0.4,0.6-1c0.2-0.5,0.3-1.4,0.4-2.8L340.1,118.3z"/>
	<path class="st0" d="M365.2,103.8c-2.8,2.6-5.8,4.8-8.9,6.8v10.8c0,0.6-0.2,1.1-0.5,1.5s-0.8,0.6-1.3,0.7s-1.4,0.2-2.6,0.2
		c-0.6,0-1.3,0-1.9,0l-1-2.6c2.3,0,3.7,0,4.1,0s0.7-0.2,0.7-0.5v-11.3c3.1-1.9,5.6-3.8,7.6-5.6h-17v-2.4h20.8L365.2,103.8
		L365.2,103.8z"/>
	<path class="st0" d="M380.7,121.9c0,0.7-0.2,1.2-0.7,1.5s-1.3,0.4-2.5,0.4c-0.5,0-0.9,0-1.4,0l-0.6-2.1c1.4,0.1,2.3,0.1,2.7,0.1
		c0.3,0,0.5-0.2,0.5-0.5v-3.2h-5.6c-0.2,2.4-0.7,4.4-1.4,5.9l-1.9-1.4c0.4-0.9,0.8-2.1,1.1-3.6s0.4-2.7,0.4-3.8v-7.3
		c-0.3,0.2-0.5,0.3-0.6,0.4l-1.1-2.1c1.6-1.2,3-3.1,4.4-5.5l2.1,0.6c-0.2,0.4-0.4,0.8-0.6,1.1h4.6v2c-0.6,0.9-1.3,1.7-2,2.5h2.6
		V121.9z M377.5,104.4h-3.3c-0.9,1.2-1.6,2-2.1,2.5h3.3C375.9,106.3,376.6,105.5,377.5,104.4z M375,111.3v-2.4h-1.8v2.4H375z
		 M375,116v-2.6h-1.8v2.6H375z M378.6,111.3v-2.4h-1.7v2.4H378.6z M378.6,116v-2.6h-1.7v2.6H378.6z M392.3,101.4
		c0,1.9,0,3.4-0.1,4.5s-0.2,1.9-0.4,2.2c-0.2,0.3-0.5,0.6-0.9,0.8s-1,0.3-1.8,0.3c-0.4,0-0.9,0-1.4-0.1l-0.6-2.2
		c0.7,0.1,1.4,0.1,2.2,0.1c0.1,0,0.3-0.1,0.4-0.2s0.2-0.5,0.3-1.2c0.1-0.7,0.1-1.5,0.1-2.3h-2.6c-0.3,3.2-1.9,5.4-4.8,6.6l-1.5-1.7
		c2.5-0.9,3.8-2.5,3.9-4.8h-2.9v-2.1L392.3,101.4L392.3,101.4L392.3,101.4z M392.8,119.4h-4.2v4.4h-2.3v-4.4h-4.6v-2.1h4.6v-2.7
		h-2.2c-0.3,0.7-0.6,1.4-1,2.1l-1.9-1c1-1.7,1.6-3.5,2-5.6l2,0.6l-0.4,1.7h1.5V110h2.3v2.4h3.9v2.1h-3.9v2.7h4.2V119.4z"/>
	<path class="st0" d="M406.9,113.1l-1.6,2c-0.7-1.5-1.4-2.7-2.1-3.7v12.4h-2.3v-11.6c-0.9,1.9-2.1,3.7-3.6,5.4l-1.2-2.5
		c1.7-1.7,3.3-4.1,4.7-7.3h-4.3v-2.2h4.5v-4.7h2.3v4.7h3.7v2.2h-3.8v0.3C404.8,110,406.1,111.7,406.9,113.1z M418.6,123.9h-2.3V122
		h-6.2v1.9h-2.4v-22.4h10.9V123.9z M416.3,107.5v-3.8h-6.2v3.8H416.3z M416.3,113.5v-3.9h-6.2v3.9H416.3z M416.3,119.7v-4h-6.2v4
		H416.3z"/>
	<path class="st0" d="M433.2,108.2h-7.6v15.7h-2.3v-22.7h9.9V108.2z M430.9,104v-1h-5.2v1H430.9z M430.9,106.4v-1h-5.2v1H430.9z
		 M433.8,115.2l-1.4,0.8c-0.1-0.2-0.2-0.4-0.3-0.5c-1.9,0.3-3.6,0.5-5,0.6l-0.4-1.4c1-0.5,2-1.2,2.9-2c-1,0.1-1.8,0.2-2.4,0.3
		l-0.4-1.4c1.2-0.6,2.3-1.6,3-3l1.7,0.6c-0.6,0.8-1.3,1.5-2.2,2.1c0.8-0.1,1.4-0.2,1.9-0.3c0.3-0.3,0.6-0.7,0.8-1.1l1.7,0.7
		c-1.2,1.5-2.6,2.7-4.1,3.7c0.5,0,1-0.1,1.7-0.2c-0.1-0.2-0.2-0.3-0.3-0.4l1.4-0.7C433,113.8,433.4,114.5,433.8,115.2z M433.4,117.4
		c0,1.7-0.4,3-1.1,3.9s-2.1,1.6-4,2.1l-1.2-1.8c1.8-0.3,3-0.8,3.6-1.6h-3.5v-3.2h2.1v1.6h1.9c0-0.1,0.1-0.2,0.1-0.5v-1.5h2.1V117.4z
		 M441.7,115.2l-1.6,0.7c0-0.1-0.2-0.3-0.3-0.6c-1.2,0.2-2.9,0.4-5.2,0.6l-0.4-1.3c1-0.5,1.9-1.2,2.7-2l-2.5,0.3l-0.4-1.4
		c1.1-0.6,2-1.6,2.7-3l1.7,0.5c-0.7,0.9-1.4,1.7-2.2,2.3c1-0.1,1.6-0.2,2-0.3c0.3-0.4,0.6-0.7,0.7-1l1.8,0.6
		c-1.3,1.6-2.6,2.9-3.8,3.7c0.8-0.1,1.4-0.2,1.8-0.2c-0.1-0.2-0.2-0.3-0.4-0.5l1.6-0.7C440.8,113.8,441.3,114.5,441.7,115.2z
		 M441.1,120H437v3.2h-2.2v-6.9h2.2v2h2v-1.6h2.1V120z M444.8,121.6c0,0.5-0.1,1-0.4,1.4s-0.6,0.6-1,0.7s-1.1,0.2-2.1,0.2
		c-0.4,0-0.7,0-1-0.1l-0.9-2.3c0.4,0,0.9,0.1,1.5,0.1s1.1,0,1.3-0.1c0.2,0,0.4-0.3,0.4-0.7v-12.6h-7.5v-7h9.8L444.8,121.6
		L444.8,121.6z M442.5,104v-1h-5.2v1H442.5z M442.5,106.4v-1h-5.2v1H442.5z"/>
	<path class="st0" d="M455,110.7l-1.4,1.9c-1.2-1.2-2.8-2.4-4.7-3.5l1.5-1.8C452,108.1,453.6,109.3,455,110.7z M455.2,115.4
		c-1.1,3.2-2.5,6-4.2,8.5l-2.1-1.4c1.4-1.9,2.8-4.7,4.2-8.2L455.2,115.4z M455.5,104.6l-1.7,1.8c-1.2-1.5-2.7-2.7-4.5-3.9l1.7-1.8
		C452.8,101.9,454.3,103.2,455.5,104.6z M472.2,122.8l-2.2,1.1c-0.4-0.9-0.8-1.7-1.1-2.4c-4.5,1.1-8.6,1.8-12.5,2.1l-0.9-2.2
		c2.2-1.8,4.1-4.5,5.8-8.3h-5.8v-2.3h7.1v-4.2h-6v-2.3h6v-3.5h2.4v3.5h5.7v2.3H465v4.2h6.9v2.3h-7.7c-1.7,3.4-3.4,6.1-5.2,8
		c2.8-0.3,5.7-0.8,8.8-1.6c-0.5-0.9-1.3-2.1-2.4-3.7l2.2-1C469.7,117.8,471.2,120.5,472.2,122.8z"/>
	<path class="st0" d="M498.7,108.2l-1.2,2.1c-1.8-0.7-3.7-1.6-5.7-2.9v2.1H482v-2.1c-1.4,0.9-3.2,1.8-5.6,2.8l-1.2-2.1
		c4.6-1.6,8.3-4.1,11.4-7.4l2.6,0.6l-0.6,0.7C491.1,104.4,494.5,106.5,498.7,108.2z M495.9,113.7c-2,2.2-4.4,4.3-7.2,6.2
		c1.3,0.8,2.5,1.6,3.5,2.4l-1.6,1.9c-2.7-2.1-5.9-3.9-9.8-5.5l1.4-2c1.2,0.5,2.6,1.2,4.2,2c2.9-1.9,5-3.6,6.3-5h-15.5v-2.2h18.7
		V113.7z M491.4,107.2c-1.5-1-3-2.2-4.5-3.7c-1.5,1.4-3.1,2.7-4.8,3.7H491.4z"/>
	<path class="st0" d="M524.7,121.9l-1.3,2c-2.6-1.1-4.8-2.4-6.6-3.8c-2.2,1.5-5,2.8-8.3,3.8l-1.3-2c3-0.9,5.5-2,7.6-3.4
		c-1.7-1.7-3.4-4-4.9-7c-1,4.8-3.2,8.9-6.8,12.1l-1.6-1.8c2.2-2.1,3.9-4.3,4.8-6.6c1-2.3,1.7-6.2,2-11.7h-4.8v-2.3h17.7
		c-0.6,2.4-1.3,4.8-2.2,7.1h4.2c-0.8,4.6-2.3,8-4.6,10.4C520.3,119.9,522.3,121,524.7,121.9z M518.2,103.5h-7.3
		c-0.1,1.7-0.2,3.3-0.4,4.8h6C517.1,106.9,517.6,105.3,518.2,103.5z M520.4,110.6H512c1.4,2.8,3,5,4.8,6.6
		C518.4,115.6,519.6,113.4,520.4,110.6z"/>
	<path class="st0" d="M538,101.5c-1.7,4.6-4.5,8.6-8.5,11.7l-1.5-2c3.5-2.7,6.1-6.2,7.6-10.5L538,101.5z M549.7,122.6l-2.1,1.5
		c-0.5-1.2-1-2.1-1.5-3c-4.1,1-9,1.8-14.9,2.6l-0.7-2c2.3-1.6,4.9-6.1,7.9-13.4l2.4,0.7c-2.1,5-4.3,9-6.6,12c4-0.5,7.5-1.1,10.7-1.9
		c-0.5-0.9-1.4-2.3-2.7-4l1.9-1.3C546.3,116.6,548.2,119.5,549.7,122.6z M551.4,111.3l-1.4,2.1c-3.3-2.3-5.7-5.7-7.3-10.1h-2.1v-2.2
		h3.8C545.8,105.6,548.1,109,551.4,111.3z"/>
	<path class="st0" d="M565.2,109.8h-7.6v14.1h-2.4v-22.5h9.9L565.2,109.8L565.2,109.8z M562.8,104.7v-1.1h-5.2v1.1H562.8z
		 M562.8,107.8v-1.1h-5.2v1.1H562.8z M573.6,117.7h-3.7v5.7h-2.3v-5.7h-3.1c-0.2,2.4-1.4,4.3-3.4,5.8l-2-1.6c1.7-1.1,2.7-2.5,3-4.2
		h-3.7v-2.2h3.9v-2.2h-3.1v-2.2h13.7v2.2H570v2.2h3.7L573.6,117.7L573.6,117.7z M567.6,115.5v-2.2h-2.9v2.2H567.6z M576.8,121.9
		c0,0.6-0.2,1.1-0.6,1.4c-0.4,0.4-1.6,0.5-3.5,0.5c-0.4,0-0.7,0-1,0l-0.6-2.5c0.6,0.1,1.4,0.2,2.3,0.2c0.5,0,0.8,0,0.9-0.1
		c0.1-0.1,0.2-0.3,0.2-0.5v-11h-7.6v-8.4h9.9L576.8,121.9L576.8,121.9z M574.5,104.7v-1.1h-5.2v1.1H574.5z M574.5,107.8v-1.1h-5.2
		v1.1H574.5z"/>
	<path class="st0" d="M588.9,105.4h-8v-2.1h3.2c-0.3-0.7-0.5-1.4-0.8-1.9l2.3-0.6c0.4,0.9,0.7,1.7,1,2.6h2.3V105.4z M588.9,109.3
		h-7.3v-2.1h7.3V109.3z M588.9,113.1h-7.3V111h7.3V113.1z M588.9,123.3h-2.3v-1.1h-2.8v1.7h-2.3v-9h7.3L588.9,123.3L588.9,123.3z
		 M586.6,120.2v-3.1h-2.8v3.1H586.6z M596.2,102.3c-1.7,1.8-3.6,3.2-5.6,4.3l-1.4-2c1.8-0.9,3.5-2.2,5.1-3.8L596.2,102.3z
		 M604,118.3c0,1.2-0.1,2.2-0.3,3.1s-0.5,1.5-1,1.8s-1.4,0.5-2.6,0.5c-1,0-1.8-0.2-2.2-0.5c-0.4-0.4-0.7-1-0.7-2v-6.7h-1.6
		c0.1,4-1.3,7.2-4.3,9.5l-2-1.4c1.5-1.2,2.5-2.4,3.2-3.6c0.6-1.2,0.9-2.7,0.8-4.5H591v-7.9h11.2v7.9h-2.5v6.4c0,0.3,0.3,0.5,0.9,0.5
		c0.4,0,0.7-0.1,0.8-0.2s0.2-0.5,0.3-1.3c0.1-0.7,0.2-1.5,0.2-2.5L604,118.3z M599.8,112.3V109h-6.3v3.3H599.8z M604.2,104.9
		l-1.6,1.9c-1.6-1.6-3.4-3-5.3-4.3l1.7-1.7C601.1,102.1,602.8,103.5,604.2,104.9z"/>
	<path class="st0" d="M616.2,120.6h-2.3v-1.5h-3.7v2.1h-2.3V102h8.3V120.6z M613.9,109.4v-5.1h-3.7v5.1H613.9z M613.9,116.9v-5.3
		h-3.7v5.3H613.9z M629.6,121.1c0,0.9-0.1,1.5-0.4,1.9c-0.3,0.4-0.6,0.6-1,0.7s-1.2,0.2-2.4,0.2c-0.8,0-1.5,0-2.2-0.1l-0.8-2.3
		c1.4,0,2.6,0.1,3.5,0.1c0.6,0,0.9-0.3,0.9-0.8v-4.9h-6.1c-0.4,3.5-1.3,6.3-2.8,8.3l-2-1.4c1.7-2.5,2.6-5.7,2.6-9.8v-11.5h10.8
		L629.6,121.1L629.6,121.1z M627.2,107.4v-3.6h-6v3.6H627.2z M627.2,113.6v-3.9h-6v3.9H627.2z"/>
	<path class="st0" d="M656.7,114.9h-23v-1.7H644V112h-8.3v-1.6h8.3v-1.2h-7.8v-1.6h7.9v-1.2h-10.3v-1.7h10.3v-1.1h-7.9v-1.7h7.9
		v-1.2h2.3v1.2h8.2v2.8h2.2v1.7h-2.2v2.8h-8.2v1.1h8.4v1.6h-8.4v1.2h10.4v1.8L656.7,114.9L656.7,114.9z M654.3,123.9h-2.4v-0.7
		h-13.4v0.7h-2.3V116h18.2L654.3,123.9L654.3,123.9z M651.9,118.8v-1.2h-13.4v1.2H651.9z M651.9,121.6v-1.2h-13.4v1.2H651.9z
		 M652.2,104.7v-1.1h-5.8v1.1H652.2z M652.2,107.7v-1.2h-5.8v1.2H652.2z"/>
</g>
</svg>
