<svg xmlns="http://www.w3.org/2000/svg" viewBox="0 0 418.2 72.54"><defs><style>.cls-1,.cls-2{fill:none;stroke-miterlimit:10;}.cls-1{stroke:#b18855;}.cls-2{stroke:#cf1126;}.cls-3{fill:#b18855;}.cls-4{fill:#cf1126;}.cls-5{fill:#fff;}</style></defs><title>svg06</title><g id="圖層_2" data-name="圖層 2"><g id="圖層_1-2" data-name="圖層 1"><line class="cls-1" x1="200.23" y1="46.5" x2="418.2" y2="46.5"/><line class="cls-2" y1="46.5" x2="200.23" y2="46.5"/><polygon class="cls-3" points="318.34 0 225.19 0 200.23 47 318.34 47 318.34 0"/><polygon class="cls-4" points="104.27 47 200.26 47 225.22 0 104.27 0 104.27 47"/><path class="cls-5" d="M139.07,20.28l-2.59,2.59a38.31,38.31,0,0,0-6.23-5.33L132.88,15A42.93,42.93,0,0,1,139.07,20.28Zm.43,5.8A128.86,128.86,0,0,1,134.6,39l-3.78-1.66a107.53,107.53,0,0,0,5.26-12.63Zm.32-14.94-2.56,2.52a35.83,35.83,0,0,0-6.12-4.82l2.56-2.41A44.53,44.53,0,0,1,139.82,11.14Zm9.65,5.11v-4.5c-2.52.22-5.22.32-8.06.32l-1.15-3.38a66,66,0,0,0,19.69-2.56l1.87,3.17a45.05,45.05,0,0,1-8.53,2v4.93h9.94v3.6h-9.94v4.28h7.85v15.3h-3.71V37.74H145.62v1.69h-3.71V24.13h7.56V19.85h-9.86v-3.6Zm8,18V27.66H145.62v6.55Z"/><path class="cls-5" d="M191.19,6.24v6.44h7.09q0,18.25-.5,22.5c-.36,2.63-2,4-4.86,4-.65,0-1.8-.07-3.46-.18l-.9-3.28c1.44.07,2.7.14,3.78.14s1.8-.79,2-2.34.32-7.45.4-17.39h-3.56v1.19q-.16,15.06-6.48,22l-2-1.73c-4.75.58-10.19,1-16.23,1.4L166,35.69l7.31-.43V33h-6.08V30h6.08V28.24h-6.23V16.61h6.23V15.1h-6.95V12h6.95V10.42c-1.87.07-3.82.14-5.83.14l-1-2.92a70.72,70.72,0,0,0,15.3-1.44L183.42,9a44.68,44.68,0,0,1-6.59,1.12V12h6.77V15.1h-6.77v1.51h6.26V28.24h-6.26V30H183v3h-6.12v2c2.16-.22,4.21-.43,6.08-.65V35.9q4.7-6.21,4.79-18.61V16.11h-3.13V12.69h3.13V6.24ZM173.52,21.18V19.27h-3.06v1.91Zm0,2.45h-3.06V25.5h3.06Zm3.1-2.45h3.1V19.27h-3.1Zm3.1,2.45h-3.1V25.5h3.1Z"/><path class="cls-5" d="M226.22,23.09V19.85H232a40.5,40.5,0,0,0,1.26-6l3,.43A35.18,35.18,0,0,1,235,19.85h2.3v3.24h-4c0,1.22-.07,2.34-.14,3.38h3.42v3.2h-3.74l-.22,1.44a15.47,15.47,0,0,1-4.25,8.39l-2.2-2.63a14.18,14.18,0,0,0,3.2-6.69l.07-.5h-2.81v-3.2h3.17c.07-1.08.11-2.2.14-3.38ZM241.88,6.28V12.9h4.57c0,12-.14,19.47-.43,22.28-.29,2.63-1.55,4-3.82,4-.4,0-1.08-.07-2-.18l-.79-3.06a18.88,18.88,0,0,0,2.27.18c.72,0,1.15-.83,1.3-2.41s.29-7.59.36-17.71h-1.44q-.16,16.09-5.47,23.47l-2.48-2.2c3.1-4.43,4.72-11.52,4.79-21.27h-1.66V13.3H226.58V10.06H230a36,36,0,0,0-1.19-3.49L232.34,6c.32,1.22.65,2.56,1,4.07h3.82V12.9h1.55V6.28ZM231.37,18.59l-2.7,1.15A30,30,0,0,0,226.73,15l2.7-1.12A40.88,40.88,0,0,1,231.37,18.59ZM247.25,23V19.78h6.33a37,37,0,0,0,1.44-6l3,.43a32,32,0,0,1-1.51,5.62h2.7V23h-4.32v3.49H259v3.24h-4.07v9.61h-3.38V29.75h-4V26.51h4V23Zm7.52-13H259V13.3H247.35V10.06h4a34.45,34.45,0,0,0-1-3.38l3.53-.58C254.19,7.29,254.48,8.62,254.77,10.06Zm-2.09,8.35-2.59,1.08A30.3,30.3,0,0,0,248.22,15l2.66-1.08A29.07,29.07,0,0,1,252.68,18.41Z"/><path class="cls-5" d="M270.29,20.25l-2.7,2.66a36.17,36.17,0,0,0-5.4-5.47l2.66-2.59A45.37,45.37,0,0,1,270.29,20.25Zm1.22,6.19a124.54,124.54,0,0,1-5.15,12.71l-3.78-1.66A100.75,100.75,0,0,0,268.09,25Zm.11-14.69L269,14.45A34.5,34.5,0,0,0,263.05,9l2.7-2.59A48.25,48.25,0,0,1,271.62,11.75ZM284.9,6.21v5.33h8.85v3.64H284.9v5.58h9.79v3.67H283a62.44,62.44,0,0,1-5.22,10.26c3.74-.43,7.49-1,11.19-1.8-.9-1.87-1.8-3.56-2.74-5.15l3.64-1.22A81,81,0,0,1,295.41,38l-3.56,1.58c-.47-1.22-.94-2.38-1.37-3.46a174.15,174.15,0,0,1-17.42,2.52l-.83-3.28a3.48,3.48,0,0,0,.79-.32c1.51-1.37,3.53-4.89,6-10.65h-7.77V20.75h9.86V15.17H273V11.53h8.14V6.21Z"/><path class="cls-4" d="M157.73,60.16l4.93,12.14h-.73l-1.53-3.84h-6.14l-1.55,3.84H152l4.95-12.14Zm2.43,7.68-2.8-7h-.05l-2.8,7Z"/><path class="cls-4" d="M175.75,60.95a3.94,3.94,0,0,1,1.68,2.84h-.65a3.41,3.41,0,0,0-1.46-2.38,5,5,0,0,0-6.56.83,6.26,6.26,0,0,0-1.29,4.06,6,6,0,0,0,1.29,4,4.45,4.45,0,0,0,3.62,1.62,4.74,4.74,0,0,0,2.87-.9,4.58,4.58,0,0,0,1.7-2.82h.65a5.08,5.08,0,0,1-5.22,4.35,5.11,5.11,0,0,1-4.13-1.85,6.59,6.59,0,0,1-1.44-4.38,6.73,6.73,0,0,1,1.46-4.45,5.17,5.17,0,0,1,4.27-1.92A5.25,5.25,0,0,1,175.75,60.95Z"/><path class="cls-4" d="M192,60.16v.61H187.4V72.3h-.66V60.78h-4.66v-.61Z"/><path class="cls-4" d="M197.89,60.16V72.3h-.66V60.16Z"/><path class="cls-3" d="M203.6,60.16l4.35,11.49h0l4.37-11.49h.75L208.43,72.3h-.9l-4.69-12.14Z"/><path class="cls-3" d="M218.73,60.16V72.3h-.66V60.16Z"/><path class="cls-3" d="M233.86,60.16v.61h-4.62V72.3h-.66V60.78h-4.66v-.61Z"/><path class="cls-3" d="M239.72,60.16V72.3h-.66V60.16Z"/><path class="cls-3" d="M254.26,60.16v.61h-7.75v4.91h7.36v.61h-7.36v5.39h8v.61h-8.7V60.16Z"/><path class="cls-3" d="M266.87,60.93a3.94,3.94,0,0,1,1.33,2.82h-.66a3.62,3.62,0,0,0-1.12-2.38,3.85,3.85,0,0,0-2.63-.83,4.54,4.54,0,0,0-2.53.59,2.06,2.06,0,0,0-1,1.89,2,2,0,0,0,1.28,1.77,13.94,13.94,0,0,0,2.43.82A13.66,13.66,0,0,1,267,66.73a2.91,2.91,0,0,1,.17,5,5.64,5.64,0,0,1-3.21.85,4.86,4.86,0,0,1-3.23-1,4.46,4.46,0,0,1-1.46-3.25h.65a3.85,3.85,0,0,0,1.28,2.77,4.19,4.19,0,0,0,2.75.85,5,5,0,0,0,2.79-.71,2.23,2.23,0,0,0,1.09-1.92,2.32,2.32,0,0,0-1.29-2.09,12.49,12.49,0,0,0-2.8-1,17.17,17.17,0,0,1-2.79-1A2.42,2.42,0,0,1,259.54,63a2.59,2.59,0,0,1,1.31-2.36,5.14,5.14,0,0,1,2.94-.75A4.41,4.41,0,0,1,266.87,60.93Z"/></g></g></svg>