<svg xmlns="http://www.w3.org/2000/svg" viewBox="0 0 418.2 72.54"><defs><style>.cls-1,.cls-2{fill:none;stroke-miterlimit:10;}.cls-1{stroke:#b18855;}.cls-2{stroke:#cf1126;}.cls-3{fill:#b18855;}.cls-4{fill:#cf1126;}.cls-5{fill:#fff;}</style></defs><title>svg02</title><g id="圖層_2" data-name="圖層 2"><g id="圖層_1-2" data-name="圖層 1"><line class="cls-1" x1="200.23" y1="46.5" x2="418.2" y2="46.5"/><line class="cls-2" y1="46.5" x2="200.23" y2="46.5"/><polygon class="cls-3" points="318.34 0 225.19 0 200.23 47 318.34 47 318.34 0"/><polygon class="cls-4" points="104.27 47 200.26 47 225.22 0 104.27 0 104.27 47"/><path class="cls-5" d="M147.13,26.29c-1.91.65-3.89,1.22-6,1.76v7.31c0,2.38-1.26,3.6-3.78,3.6h-4.07l-.83-3.56a31.46,31.46,0,0,0,3.6.22,1.11,1.11,0,0,0,1.26-1.22V29c-2.09.43-4.21.83-6.44,1.19l-.54-3.78c2.45-.36,4.79-.79,7-1.26V18.91h-7v-3.6h7V12c-1.73.36-3.49.65-5.36.9l-.79-3.56A49.51,49.51,0,0,0,144.5,6.13l1.3,3.53c-1.48.54-3,1-4.64,1.44v4.21h7.38c-.22-2.77-.29-5.83-.29-9.14H152c0,3.46.14,6.48.36,9.14h10.76v3.6H152.67a36.22,36.22,0,0,0,.94,5.76c.14.58.29,1.08.43,1.58a32,32,0,0,0,3.85-6.12l3.24,1.73a35.16,35.16,0,0,1-5.69,8.46,12.32,12.32,0,0,0,1.15,2.2c1,1.58,1.8,2.38,2.3,2.38s.79-1.84,1.22-5.44l3.35,1.76c-.94,5.15-2.27,7.74-4,7.74-1.58,0-3.24-1.08-4.93-3.2a16.7,16.7,0,0,1-1.8-2.84,29.43,29.43,0,0,1-8.17,4.75l-2.09-3.2a26.8,26.8,0,0,0,8.71-5.18q-.59-1.73-1.08-3.56a43.81,43.81,0,0,1-1.22-6.8h-7.7v5.33c2.09-.54,4.1-1.12,6-1.76Zm15.33-15-2.7,2.7a34.83,34.83,0,0,0-6.3-5L156,6.5A50.55,50.55,0,0,1,162.46,11.25Z"/><path class="cls-5" d="M179.75,37.2h-3.6V35.4h-5.33v2.84h-3.6V12h3.46A32.47,32.47,0,0,0,172.08,6l3.78.5A33.2,33.2,0,0,1,174.28,12h5.47Zm-3.6-15.41v-6.3h-5.33v6.3Zm0,10.15v-6.8h-5.33v6.8Zm21.6,3.35q-.54,3.78-5.18,3.78-1.08,0-3.89-.22l-.9-3.42c1.58.11,3,.18,4.18.18a2.15,2.15,0,0,0,2.27-2.12c.22-1.73.32-7.67.4-17.85H185.9a29,29,0,0,1-3.46,5.83l-2.27-3A30.66,30.66,0,0,0,185,6l3.71.47A47.44,47.44,0,0,1,187.34,12h10.94Q198.28,30.86,197.74,35.29Zm-6.12-6.88-3,2.09a65.62,65.62,0,0,0-5.36-7.88l3.06-1.91A61.86,61.86,0,0,1,191.63,28.42Z"/><path class="cls-5" d="M234.36,39.32h-3.67V23.49a44,44,0,0,1-3.31,7.45l-1.58-3.85a32.49,32.49,0,0,0,4.72-10.73h-3.74V12.79h3.92V6.13h3.67v6.66h3v3.56h-3v1.73a63,63,0,0,1,4.18,5.15l-2.05,3c-.79-1.58-1.51-2.92-2.12-4Zm2.63-7.7-1-3.35a21,21,0,0,0,5.18-8.1l3.42.61c-.14.43-.32.83-.47,1.22h3.85a12.34,12.34,0,0,0-.79-1.37l3.67-.54c.25.58.5,1.19.76,1.91h6.95v3h-6.62v1.66h5.54v2.7h-5.54v1.62h5.76V33.6h-5.76v1.73h7.34v3H242.71v.86h-3.24V29.14Q238.28,30.43,237,31.62Zm6.41-23.79V6h3.42v6.44h-3.42V10.85h-6v-3ZM247.57,13v6.77h-8.89V13Zm-2.74,2.48h-3.42v1.84h3.42ZM248.58,25h-5.87v1.66h5.87Zm0,4.36h-5.87v1.62h5.87Zm0,6V33.6h-5.87v1.73ZM258.12,13v6.73H249V13ZM253,6V7.86h6.12v3H253v1.55h-3.46V6Zm2.34,9.58h-3.6v1.8h3.6Z"/><path class="cls-5" d="M270.07,10.06h4.43v3.49h-12V10.06h4c-.36-1-.79-2.09-1.22-3.1l3.56-1C269.35,7.5,269.78,8.84,270.07,10.06Zm-3.35,29.26h-3.6V26.08H273.6V38.86H270v-1.4h-3.31Zm6.66-23.72v3.31h-10V15.6Zm0,5.11V24h-10V20.71ZM270,29.5h-3.31V34H270Zm5.83-7.81-2.16-2.81a19.24,19.24,0,0,0,4-3.13A26.41,26.41,0,0,0,275,13.41l2.27-2.16a26.92,26.92,0,0,1,2.34,2.09,19.57,19.57,0,0,0,1.48-3h-5V7.14h8.17V9.77a22,22,0,0,1-2.77,6.48H289a31.41,31.41,0,0,1-3.89-8.57l2.66-1.48c.22.83.5,1.62.79,2.41a16.35,16.35,0,0,0,2.05-2.48L293,8.26a17.81,17.81,0,0,1-3.2,3.17c.29.54.58,1.08.9,1.62a17.67,17.67,0,0,0,2.48-3l2.41,2.12a20.7,20.7,0,0,1-3.1,3.31,23.72,23.72,0,0,0,3.17,3.13l-2.3,2.66a25.87,25.87,0,0,1-3.67-4.07v2.23h-9.47V17.83A19.36,19.36,0,0,1,275.87,21.69Zm3.82,13.82a22,22,0,0,0-1.8-2.81l3.35-1.26a25.14,25.14,0,0,1,2.09,4.07h3.2a38,38,0,0,0,2-4l3.35,1.19a23.69,23.69,0,0,1-1.66,2.84h4.54v3.35H275V35.51Zm13-13.53v9.21H276.77V22ZM289.15,25h-8.85v3.06h8.85Z"/><path class="cls-4" d="M185.77,60.93a4,4,0,0,1,1.33,2.82h-.66a3.62,3.62,0,0,0-1.12-2.38,3.86,3.86,0,0,0-2.63-.83,4.54,4.54,0,0,0-2.53.59,2.07,2.07,0,0,0-1,1.89,2,2,0,0,0,1.27,1.77,14,14,0,0,0,2.43.82,13.63,13.63,0,0,1,3.09,1.12,2.91,2.91,0,0,1,.17,5,5.64,5.64,0,0,1-3.21.85,4.86,4.86,0,0,1-3.23-1,4.46,4.46,0,0,1-1.46-3.25h.65a3.85,3.85,0,0,0,1.27,2.77,4.2,4.2,0,0,0,2.75.85,5,5,0,0,0,2.79-.71,2.23,2.23,0,0,0,1.09-1.92,2.32,2.32,0,0,0-1.29-2.09,12.52,12.52,0,0,0-2.81-1,17.2,17.2,0,0,1-2.79-1A2.42,2.42,0,0,1,178.45,63a2.59,2.59,0,0,1,1.31-2.36,5.14,5.14,0,0,1,2.94-.75A4.42,4.42,0,0,1,185.77,60.93Z"/><path class="cls-4" d="M201.63,60.16v.61H197V72.3h-.66V60.78h-4.66v-.61Z"/><path class="cls-4" d="M206.28,60.16l4.4,6.46,4.42-6.46h.82L211,67.25v5h-.66v-5l-4.91-7.09Z"/><path class="cls-3" d="M221.32,60.16V71.69h7.58v.61h-8.24V60.16Z"/><path class="cls-3" d="M242.4,60.16v.61h-7.75v4.91H242v.61h-7.36v5.39h8v.61H234V60.16Z"/></g></g></svg>