<svg xmlns="http://www.w3.org/2000/svg" viewBox="0 0 460.36 69.68"><defs><style>.cls-1,.cls-2{fill:none;stroke-miterlimit:10;}.cls-1{stroke:#b18855;}.cls-2{stroke:#cf1126;}.cls-3{fill:#b18855;}.cls-4{fill:#cf1126;}.cls-5{fill:#fff;}</style></defs><title>svg01</title><g id="圖層_2" data-name="圖層 2"><g id="圖層_1-2" data-name="圖層 1"><line class="cls-1" x1="160.55" y1="46.5" x2="460.36" y2="46.5"/><line class="cls-2" y1="46.5" x2="160.55" y2="46.5"/><polygon class="cls-3" points="241.81 0 185.5 0 160.55 47 241.81 47 241.81 0"/><polygon class="cls-4" points="104.27 47 160.57 47 185.53 0 104.27 0 104.27 47"/><path class="cls-5" d="M143,13.41a20.83,20.83,0,0,0,.61-2.48H132.68V21.25c-.14,7.52-1.33,13.57-3.6,18.14l-2.84-2.56c1.69-3.74,2.56-9,2.63-15.59v-14h29.95v3.67H147.37a25.12,25.12,0,0,1-.65,2.48h9.61V27.95h-8v7.92c0,2.3-1.22,3.46-3.6,3.46h-3.64l-.83-3.67a24.84,24.84,0,0,0,3.17.25c.72,0,1.12-.32,1.12-1v-7h-8.85V13.41Zm-1.76,17a33.85,33.85,0,0,1-5.58,8l-3.1-2.2a30.46,30.46,0,0,0,5.4-7.45ZM152.7,19.06V16.83H139.38v2.23Zm0,3.17H139.38v2.34H152.7Zm6.59,14.22-3.13,2.12a58,58,0,0,0-5.36-7.88l3.06-1.91A74,74,0,0,1,159.28,36.44Z"/><path class="cls-5" d="M217,39.29h-3.74V37.2H192.8v2.09h-3.74V11.53h12.06V6.21h3.82v5.33H217ZM201.12,22.12v-7H192.8v7Zm0,11.45v-8H192.8v8Zm3.82-11.45h8.31v-7h-8.31Zm8.31,11.45v-8h-8.31v8Z"/><path class="cls-4" d="M139.23,58.76a3.57,3.57,0,0,1,2.43.75,2.6,2.6,0,0,1,.85,2.1,2.9,2.9,0,0,1-.55,1.74,2.71,2.71,0,0,1-1.6.93v0a2.19,2.19,0,0,1,1.94,2.06l.13,1.53a3.64,3.64,0,0,0,.44,1.58h-.4a3.71,3.71,0,0,1-.37-1.49l-.14-1.59a1.87,1.87,0,0,0-.87-1.53,3.49,3.49,0,0,0-1.81-.41h-4v5h-.36V58.76Zm-4,5.34h4a3.13,3.13,0,0,0,2.19-.72,2.31,2.31,0,0,0,.72-1.77,2.37,2.37,0,0,0-.67-1.83,3.25,3.25,0,0,0-2.25-.66h-4Z"/><path class="cls-4" d="M154.88,58.76v.36h-7v4.59h6.66v.36h-6.66v5h7.26v.36h-7.62V58.76Z"/><path class="cls-4" d="M163.7,58.76l4.41,10.71h-.42l-1.44-3.52h-5.58l-1.44,3.52h-.42l4.41-10.71Zm2.4,6.83-2.61-6.43h0l-2.62,6.43Z"/><path class="cls-3" d="M178.22,59.45a3.63,3.63,0,0,1,1.14,2.47H179a3.26,3.26,0,0,0-1-2.22,3.49,3.49,0,0,0-2.43-.79,4.23,4.23,0,0,0-2.37.57,2,2,0,0,0-1,1.77,1.84,1.84,0,0,0,1.18,1.65,14.27,14.27,0,0,0,2.21.72,10,10,0,0,1,2.73,1,2.54,2.54,0,0,1,.12,4.33,4.92,4.92,0,0,1-2.77.74,4.1,4.1,0,0,1-2.79-.9,4,4,0,0,1-1.26-2.85H172a3.63,3.63,0,0,0,1.17,2.58,3.74,3.74,0,0,0,2.52.81,4.55,4.55,0,0,0,2.58-.67,2.12,2.12,0,0,0,1-1.81,2.16,2.16,0,0,0-1.16-2,10.37,10.37,0,0,0-2.55-.9,13.37,13.37,0,0,1-2.46-.82,2.09,2.09,0,0,1-1.23-1.91A2.27,2.27,0,0,1,173,59.18a4.65,4.65,0,0,1,2.55-.63A3.83,3.83,0,0,1,178.22,59.45Z"/><path class="cls-3" d="M192.5,60.18a6.66,6.66,0,0,1,0,7.86,5,5,0,0,1-7.38,0,6.63,6.63,0,0,1,0-7.86,5,5,0,0,1,7.39,0Zm-7.11.24a6.24,6.24,0,0,0,0,7.38,4.62,4.62,0,0,0,6.84,0,6.27,6.27,0,0,0,0-7.38,4.6,4.6,0,0,0-6.82,0Z"/><path class="cls-3" d="M199.13,58.76l7.28,10.33h0V58.76h.36V69.47h-.54L199,59.09h0V69.47h-.36V58.76Z"/></g></g></svg>