<svg xmlns="http://www.w3.org/2000/svg" viewBox="0 0 90 90"><defs><style>.cls-1{fill:none;}.cls-2{fill:#b18855;}</style></defs><title>svg07</title><g id="圖層_2" data-name="圖層 2"><g id="圖層_1-2" data-name="圖層 1"><rect class="cls-1" width="90" height="90"/><path class="cls-2" d="M77.13,45.51l0-.63c0-2.16-.59-3.21-2.32-3.21H62a5.76,5.76,0,0,0-1.53-4.43l-6.31-6.63a5.48,5.48,0,0,0-1.57-1.18c-.63-.35-3.3-1.4-4-1.72a3.52,3.52,0,0,0-1.61-.32V25.58c.43-.78.94-.74,1-3.25a4.79,4.79,0,0,0-5.06-5.07c-3.26,0-4.82,2.27-5.14,5.07h1.14v3.91a2.86,2.86,0,0,0,3.1,2.56v.75l-3.53,5.92-3.33,3.06c-1.42,1.33-3.1.43-2.71-1l2.71-11.3c.19-.74-.35-1.49-1.22-.16L27.23,36.25c-1.57,2.51-5.65,3.88-8.2,3.88H15.78v5.34l.24,0a14.33,14.33,0,0,1,5.41,1.07l-.85,1.38a12.87,12.87,0,1,0,4.11,2.49L25.52,49a14.43,14.43,0,0,1,5,10.87c0,3.06,1.45,6.24,6,6.24s8.2,0,13.53-.08h9.7A12.82,12.82,0,0,0,83.87,60H86.7A15.82,15.82,0,0,0,77.13,45.51Zm-61,22.32a7.92,7.92,0,1,1,1.84-15.63L16.19,55h-.09a4.88,4.88,0,1,0,4.21,2.44L22,54.68a7.91,7.91,0,0,1-5.94,13.15ZM42.92,47l-8.16-3.3L44.8,38a9.42,9.42,0,0,0,3.61,3.56ZM58.49,57.16c-.12.62-.83.52-.83,0V48.88h5.26c.63,0,.7.43.35.78A12.63,12.63,0,0,0,58.49,57.16ZM71,67.83a7.92,7.92,0,0,1-4.3-14.57l1,3a4.86,4.86,0,1,0,4-1.2L70.71,52,71,52a7.93,7.93,0,0,1,0,15.85Z"/></g></g></svg>