<svg xmlns="http://www.w3.org/2000/svg" viewBox="0 0 90 90"><defs><style>.cls-1{fill:#b18855;}.cls-2{fill:none;}</style></defs><title>svg09</title><g id="圖層_2" data-name="圖層 2"><g id="圖層_1-2" data-name="圖層 1"><path class="cls-1" d="M61.27,59c-7.64-2.77-10.08-5.21-10.08-10.25,0-3.09,2.28-2.11,3.42-7.65.49-2.28,2.44,0,2.93-5.37,0-2.11-1.14-2.6-1.14-2.6a48,48,0,0,0,.81-5.53c.33-2.93-1.79-10.74-12.36-10.74S32.15,24.5,32.48,27.6a48,48,0,0,0,.81,5.53s-1.14.49-1.14,2.6c.33,5.21,2.44,2.93,2.93,5.37,1,5.53,3.42,4.55,3.42,7.65,0,5-2.44,7.48-10.25,10.25s-12.69,5.69-12.69,7.65v6.51H74.44V66.63C74.12,64.68,69.07,61.75,61.27,59Z"/><rect class="cls-2" width="90" height="90"/></g></g></svg>