<svg xmlns="http://www.w3.org/2000/svg" viewBox="0 0 418.2 72.54"><defs><style>.cls-1,.cls-2{fill:none;stroke-miterlimit:10;}.cls-1{stroke:#b18855;}.cls-2{stroke:#cf1126;}.cls-3{fill:#b18855;}.cls-4{fill:#cf1126;}.cls-5{fill:#fff;}</style></defs><title>svg03</title><g id="圖層_2" data-name="圖層 2"><g id="圖層_1-2" data-name="圖層 1"><line class="cls-1" x1="200.23" y1="46.5" x2="418.2" y2="46.5"/><line class="cls-2" y1="46.5" x2="200.23" y2="46.5"/><polygon class="cls-3" points="318.34 0 225.19 0 200.23 47 318.34 47 318.34 0"/><polygon class="cls-4" points="104.27 47 200.26 47 225.22 0 104.27 0 104.27 47"/><path class="cls-5" d="M131.22,29.21l-1.19-4c4-3.74,6.8-7.42,8.31-11h-7.52v-3.6h4.32a40.56,40.56,0,0,0-1.44-3.85l3.53-1a37.31,37.31,0,0,1,1.44,4.86h3.42v3.17a27.64,27.64,0,0,1-3.78,7.49,30.84,30.84,0,0,1,4.5,3.53l-2.05,3.1a34,34,0,0,0-2.48-2.56V39.32h-3.74V26C133.49,27,132.37,28.13,131.22,29.21Zm29.66-22V27.95h-4V34.5a1,1,0,0,0,.79,1h1.55c.54-.07.83-.58.9-1.51s.14-2.34.14-4.07l3.28,1.26c0,3.46-.29,5.58-.79,6.37s-1.62,1.12-3.35,1.26H157.5c-2.77,0-4.14-1.22-4.14-3.6V27.95h-3a13.61,13.61,0,0,1-7.92,11.41l-2-3.17a9.9,9.9,0,0,0,6.37-8.24h-3.53V7.21ZM157.21,13V10.38H147V13Zm0,5.87V16H147v2.92Zm0,3H147v3h10.22Z"/><path class="cls-5" d="M193.5,22V34.07H188v1.22c0,.5.22.76.68.76h5.62a1.33,1.33,0,0,0,1.12-.5,8.13,8.13,0,0,0,.5-3l3.1,1c-.29,2.63-.72,4.21-1.33,4.71a4.63,4.63,0,0,1-2.74.68h-7.13c-2.12,0-3.17-1-3.17-2.92V34.07h-3.2c-1.91,3-6.26,4.82-13,5.62L166.68,37c5.22-.5,8.82-1.48,10.83-3h-5.65V22Zm-21-7.42h4.86v2.2h-4.68l.11,1.44h6.88l-1.19-1.91a13.13,13.13,0,0,0,2.74-1.19c-.68-.43-1.4-.83-2.12-1.22l1.55-1.48c.86.47,1.66.94,2.45,1.4.58-.5,1.19-1,1.76-1.66l1.84,1.19A19.29,19.29,0,0,1,185,15.06a26.52,26.52,0,0,1,2.2,1.58l-1.55,1.55h7.13l.11-1.44h-4.82v-2.2h5l.07-1.22h-4.93V11.1h5.08l.11-1.33H188V7.14h8.5l-.65,11h2.41v6h-3.31V20.71h-24.4v3.46h-3.31v-6h2.48l-.76-10.37a34.62,34.62,0,0,0,7.67-1.58l1.08,2.56A39.55,39.55,0,0,1,172.12,10l.11,1.08h5.15v2.23h-5Zm17.57,10.73V24H175.25v1.26Zm0,3.17V27.23H175.25v1.22Zm0,1.94H175.25v1.33h14.83ZM183.2,8.12A18.87,18.87,0,0,0,185,6.53l2,1.26c-.58.58-1.15,1.12-1.66,1.58q1.08.7,2.05,1.4l-1.66,1.66a25,25,0,0,0-2.38-1.66c-1,.58-2.3,1.22-3.82,1.91l-1.26-2.09a14.52,14.52,0,0,0,2.77-1.15c-.76-.43-1.51-.83-2.3-1.19l1.66-1.62C181.44,7.14,182.34,7.61,183.2,8.12Zm-3.35,10.08h5.65c-.68-.58-1.44-1.19-2.3-1.8C182.27,17,181.15,17.55,179.85,18.19Z"/><path class="cls-5" d="M243.72,21.22c-.54.76-1.08,1.44-1.58,2.05l-2.3-2.88c2.88-3.56,4.86-8.32,5.87-14.29l3.49.65A48.65,48.65,0,0,1,248,11.86h10.8v3.67h-2.38A31.16,31.16,0,0,1,252,31a26.18,26.18,0,0,0,7.34,5.65l-2.27,3a28.38,28.38,0,0,1-7.31-5.72,28,28,0,0,1-6.84,5.51l-1.84-2.92h-9.61v2.38h-3.56V23.34h4.75V16.83h-6.08v-3.6h6.08V6.6h3.64v6.62H242v3.6H236.3v6.51h4.82V36.19A21.92,21.92,0,0,0,247.5,31,25,25,0,0,1,243.72,21.22Zm-6.19,11.91V26.69h-6v6.44Zm6.7-12.63,2.59-.76a20.54,20.54,0,0,0,2.88,8.14,27.55,27.55,0,0,0,3.2-12.35h-6.16A32,32,0,0,1,244.22,20.5Z"/><path class="cls-5" d="M276.84,12.58V11H263.16V7.79h13.68V6h3.74V7.79h13.68V11H280.58v1.62h10.65v7.56H280.58v1.66H291.7v4.68h3.53v3H291.7v4.72H280.58v1.66c0,2.3-1.26,3.46-3.74,3.46h-4.43l-.79-3.53a38.47,38.47,0,0,0,4,.25c.83,0,1.26-.36,1.26-1.08v-.76H265.43v-3h11.41V29.46H262.19v-3h14.65v-1.8H265.46V21.79h11.37V20.14H266.18V12.58Zm0,2.77h-6.91V17.4h6.91Zm10.65,0h-6.91V17.4h6.91Zm-6.91,11.12h7.56v-1.8h-7.56Zm0,3v1.76h7.56V29.46Z"/><path class="cls-4" d="M133.69,60.16,138,71.65h0l4.37-11.49h.75L138.51,72.3h-.9l-4.69-12.14Z"/><path class="cls-4" d="M148.82,60.16V72.3h-.66V60.16Z"/><path class="cls-4" d="M161.85,60.93a4,4,0,0,1,1.33,2.82h-.66a3.62,3.62,0,0,0-1.12-2.38,3.86,3.86,0,0,0-2.63-.83,4.54,4.54,0,0,0-2.53.59,2.07,2.07,0,0,0-1,1.89,2,2,0,0,0,1.27,1.77,14,14,0,0,0,2.43.82A13.63,13.63,0,0,1,162,66.72a2.91,2.91,0,0,1,.17,5,5.64,5.64,0,0,1-3.21.85,4.86,4.86,0,0,1-3.23-1,4.46,4.46,0,0,1-1.46-3.25h.65a3.85,3.85,0,0,0,1.27,2.77,4.2,4.2,0,0,0,2.75.85,5,5,0,0,0,2.79-.71,2.23,2.23,0,0,0,1.09-1.92,2.32,2.32,0,0,0-1.29-2.09,12.52,12.52,0,0,0-2.81-1,17.2,17.2,0,0,1-2.79-1A2.42,2.42,0,0,1,154.53,63a2.59,2.59,0,0,1,1.31-2.36,5.14,5.14,0,0,1,2.94-.75A4.42,4.42,0,0,1,161.85,60.93Z"/><path class="cls-4" d="M169.37,60.16v7.41a4.74,4.74,0,0,0,.9,3.16,4.46,4.46,0,0,0,6.07,0,4.84,4.84,0,0,0,.9-3.16V60.16h.66v7.39a5.41,5.41,0,0,1-1.07,3.62,5.28,5.28,0,0,1-7.05,0,5.5,5.5,0,0,1-1.07-3.64V60.16Z"/><path class="cls-4" d="M188.32,60.16l4.93,12.14h-.73L191,68.46h-6.14l-1.55,3.84h-.75l4.95-12.14Zm2.43,7.68-2.8-7h-.05l-2.8,7Z"/><path class="cls-4" d="M198.57,60.16V71.69h7.58v.61h-8.24V60.16Z"/><path class="cls-3" d="M227.22,60.93a3.94,3.94,0,0,1,1.33,2.82h-.66a3.62,3.62,0,0,0-1.12-2.38,3.85,3.85,0,0,0-2.63-.83,4.54,4.54,0,0,0-2.53.59,2.06,2.06,0,0,0-1,1.89,2,2,0,0,0,1.28,1.77,13.94,13.94,0,0,0,2.43.82,13.66,13.66,0,0,1,3.09,1.12,2.91,2.91,0,0,1,.17,5,5.64,5.64,0,0,1-3.21.85,4.86,4.86,0,0,1-3.23-1,4.46,4.46,0,0,1-1.46-3.25h.65a3.85,3.85,0,0,0,1.28,2.77,4.19,4.19,0,0,0,2.75.85,5,5,0,0,0,2.79-.71,2.23,2.23,0,0,0,1.09-1.92,2.32,2.32,0,0,0-1.29-2.09,12.49,12.49,0,0,0-2.8-1,17.17,17.17,0,0,1-2.79-1A2.42,2.42,0,0,1,219.89,63a2.59,2.59,0,0,1,1.31-2.36,5.14,5.14,0,0,1,2.94-.75A4.41,4.41,0,0,1,227.22,60.93Z"/><path class="cls-3" d="M243.08,60.16v.61h-4.62V72.3h-.66V60.78h-4.66v-.61Z"/><path class="cls-3" d="M257.46,61.78a6.69,6.69,0,0,1,1.46,4.45,6.8,6.8,0,0,1-1.46,4.47,5.27,5.27,0,0,1-4.22,1.84A5.21,5.21,0,0,1,249,70.68a7.45,7.45,0,0,1,0-8.91,5.72,5.72,0,0,1,8.43,0Zm-7.94.41a6.06,6.06,0,0,0-1.31,4,6,6,0,0,0,1.31,4,5,5,0,0,0,7.43,0,6.91,6.91,0,0,0,0-8.09,5,5,0,0,0-7.43,0Z"/><path class="cls-3" d="M269.36,60.16a4.13,4.13,0,0,1,2.77.85,3,3,0,0,1,1,2.41,3.14,3.14,0,0,1-.61,1.94,3,3,0,0,1-1.77,1.05v0a2.42,2.42,0,0,1,2.12,2.29l.15,1.77a3.9,3.9,0,0,0,.53,1.79h-.73a4.32,4.32,0,0,1-.44-1.67l-.15-1.75a2.06,2.06,0,0,0-.92-1.68,3.64,3.64,0,0,0-2-.46H265V72.3h-.66V60.16Zm-4.37,6h4.33a3.38,3.38,0,0,0,2.36-.77,2.52,2.52,0,0,0,.78-1.92,2.58,2.58,0,0,0-.73-2,3.58,3.58,0,0,0-2.43-.7H265Z"/><path class="cls-3" d="M278.47,60.16l4.4,6.46,4.42-6.46h.82l-4.9,7.09v5h-.66v-5l-4.91-7.09Z"/></g></g></svg>