<svg xmlns="http://www.w3.org/2000/svg" viewBox="0 0 90 90"><defs><style>.cls-1{fill:none;}.cls-2{fill:#b18855;}</style></defs><title>svg08</title><g id="圖層_2" data-name="圖層 2"><g id="圖層_1-2" data-name="圖層 1"><rect class="cls-1" width="90" height="90"/><circle class="cls-2" cx="64.38" cy="12.76" r="6.95"/><path class="cls-2" d="M19.8,77.23a3,3,0,1,0,.7,4.17A3,3,0,0,0,19.8,77.23ZM18.93,80a.94.94,0,1,1-.52-1.22A.9.9,0,0,1,18.93,80Z"/><path class="cls-2" d="M76.46,48.39l-6.6-9.73a.09.09,0,0,0-.09-.09l-2.09-5L69,27a3.64,3.64,0,0,0-2.87-4.26l-7-1.39a3,3,0,0,0-.87-.09,3.17,3.17,0,0,0-3.65.61L37.88,40.48a3,3,0,0,0-.61,3l-2.09,3-1.39-1a3.52,3.52,0,0,0-5,.87L13.63,67.68a3.52,3.52,0,0,0,.87,5l6,4.26a3.52,3.52,0,0,0,5-.87L40.66,54.64a3.52,3.52,0,0,0-.87-5L38,48.47l2.09-2.87a3.31,3.31,0,0,0,2.26-1L53.34,32.57,51,44.82a9.64,9.64,0,0,0,.35,5l1.56,4.61-2.09,6.69L41.44,77.23a2.35,2.35,0,0,0,.87,3.13l1.65,1a2.35,2.35,0,0,0,3.13-.7l8-11.9-.87,12.86A2.45,2.45,0,0,0,56.38,84l1.91.17a2.38,2.38,0,0,0,2.52-2l2.52-17.64a5.83,5.83,0,0,0,0-1.74l-.87-9.38L65.16,47l.43-2.43,5.13,7.65a3.59,3.59,0,0,0,2.87,1.56,3.13,3.13,0,0,0,1.91-.61A3.48,3.48,0,0,0,76.46,48.39Z"/></g></g></svg>