<svg xmlns="http://www.w3.org/2000/svg" viewBox="0 0 418.2 113.35"><defs><style>.cls-1,.cls-2{fill:none;stroke-miterlimit:10;}.cls-1{stroke:#ae8555;}.cls-2{stroke:#cc1126;}.cls-3{fill:#ae8555;}.cls-4{fill:#cc1126;}.cls-5{fill:#fff;}</style></defs><title>svg04</title><g id="圖層_2" data-name="圖層 2"><g id="圖層_1-2" data-name="圖層 1"><line class="cls-1" x1="200.23" y1="46.5" x2="418.2" y2="46.5"/><line class="cls-2" y1="46.5" x2="200.23" y2="46.5"/><polygon class="cls-3" points="318.34 0 225.19 0 200.23 47 318.34 47 318.34 0"/><polygon class="cls-4" points="104.27 47 200.26 47 225.22 0 104.27 0 104.27 47"/><path class="cls-5" d="M135.83,32.88a27.1,27.1,0,0,1-3.28,6L129.89,37a21.65,21.65,0,0,0,3.17-5.47ZM148.17,7.21V17.47h-6.77l.4,1.62h8V22H130.28V19.09h8l-.4-1.62h-5.79V7.21ZM148,23.49v7.45h-6V36c0,2-1.08,3.06-3.2,3.06h-2.52l-.76-3.24a15.32,15.32,0,0,0,2.12.18.73.73,0,0,0,.79-.83V30.94h-6V23.49Zm-3.17-12.13V9.73h-9.32v1.62Zm0,2.16h-9.32v1.55h9.32ZM144.54,26h-8.71v2.38h8.71Zm4.28,10.33-2.66,1.84a39.06,39.06,0,0,0-2.81-5l2.56-1.58A50.62,50.62,0,0,1,148.82,36.33Zm14.79-9.14a25.76,25.76,0,0,1-13.14,12.17L149,35.94A23.25,23.25,0,0,0,160.74,25ZM161.82,8.8a36.66,36.66,0,0,1-10.73,7.31l-1.55-3.17a28.87,28.87,0,0,0,10-6.77Zm.94,9.47a37.49,37.49,0,0,1-11,8.32l-1.51-3.17a29.44,29.44,0,0,0,10.22-7.78Z"/><path class="cls-5" d="M180.86,9.27a23.91,23.91,0,0,0-1.51-2.88l4-.65c.47,1.08.94,2.23,1.37,3.53H197.1v3.46h-5.43a29,29,0,0,1-1.8,4.64h8.89v3.49h-32V17.37h8.75c-.5-1.66-1-3.2-1.58-4.64h-5.47V9.27Zm13.68,30.2h-3.78V38.1H174.85v1.37h-3.78V22.91h23.47ZM190.76,29V26.15H174.85V29Zm0,5.9V32.12H174.85v2.74ZM179.13,17.37h7a23.32,23.32,0,0,0,1.76-4.64H177.8C178.27,14.16,178.7,15.71,179.13,17.37Z"/><path class="cls-5" d="M227.38,31l-1.15-3.74A31,31,0,0,0,235,15.53l3.38,1.62a28,28,0,0,1-2.7,5V39.54h-3.82V26.87A44.75,44.75,0,0,1,227.38,31Zm7-22V6h3.71V9H242v3.53H238.1v2.66H234.4V12.54h-7.34V9ZM246.2,38.89c-2.63,0-3.92-1.37-3.92-4.07V16.14h3.82v6.8l11.52-.76v3.53l-11.52.72V34c0,.94.4,1.4,1.22,1.4h6.08a1.86,1.86,0,0,0,1.58-.72c.4-.5.65-2.05.79-4.61l3.56,1.12c-.36,3.78-.9,6-1.69,6.69a5.53,5.53,0,0,1-3.56,1ZM251.06,6V9h7.34v3.53h-7.34v2.66h-3.71V12.54h-3.89V9h3.89V6Z"/><path class="cls-5" d="M274.57,34.57A41.09,41.09,0,0,1,264.31,39l-1.55-3.17a35.52,35.52,0,0,0,9.72-3.6ZM273,6.6c-.29.79-.61,1.55-.94,2.27h6.7v3.06a11.81,11.81,0,0,1-2.84,4.43c1.19.47,2.34,1,3.46,1.48l-1.12,1.58,1.91,1.4a46,46,0,0,1-5.51,3.06c1.94-.11,3.85-.18,5.8-.25,1.48-.83,3-1.69,4.5-2.63l3.13,2.09A63.83,63.83,0,0,1,274.61,29q6.48-.27,12.63-.65c-.68-.65-1.37-1.3-2.09-1.94l2.77-1.73a60.36,60.36,0,0,1,6.48,6.48l-2.81,1.94c-.58-.76-1.22-1.51-1.91-2.27l-9,.54v4.43c0,2.3-1.22,3.49-3.64,3.49H274l-.79-3.67a17.39,17.39,0,0,0,2.63.25c.72,0,1.12-.36,1.12-1V31.58c-4.32.18-8.31.32-12,.43l-.76-3.28c1.08.07,2.12.11,3.17.11a45.23,45.23,0,0,0,8-2.66l-7.78.29-.65-3a11.06,11.06,0,0,0,3.24-.36A51.41,51.41,0,0,0,276,19.89q-1.35-.65-2.92-1.3A33,33,0,0,1,264.78,22l-1.84-2.88A45.91,45.91,0,0,0,269.14,17c-1.37-.54-2.84-1.08-4.39-1.58q1.13-1.78,2.05-3.35h-3.28V8.87h5c.43-.94.79-1.84,1.08-2.66Zm2.2,5.51h-4.86q-.54.92-1.19,1.84c1.15.36,2.27.72,3.35,1.12A9.75,9.75,0,0,0,275.22,12.11ZM293,8.22V19.81H280.76V8.22ZM294.51,36l-1.87,3a51.94,51.94,0,0,0-10.44-4.5L284,31.87A58.48,58.48,0,0,1,294.51,36Zm-4.93-24.58h-5.4v5.11h5.4Z"/><path class="cls-4" d="M92.54,60.16l4.35,11.49h0l4.37-11.49H102L97.37,72.3h-.9L91.77,60.16Z"/><path class="cls-4" d="M107.67,60.16V72.3H107V60.16Z"/><path class="cls-4" d="M118.06,60.16a5,5,0,0,1,4.18,1.72,6.64,6.64,0,0,1,1.27,4.35A6.31,6.31,0,0,1,122,70.6a5.54,5.54,0,0,1-4.3,1.7h-4V60.16Zm-3.6,11.52h3.23a5,5,0,0,0,3.86-1.5,5.74,5.74,0,0,0,1.31-4,6.3,6.3,0,0,0-1.09-4A4.58,4.58,0,0,0,118,60.78h-3.55Z"/><path class="cls-4" d="M137.33,60.16v.61h-7.75v4.91h7.36v.61h-7.36v5.39h8v.61h-8.7V60.16Z"/><path class="cls-4" d="M152.43,61.78a6.69,6.69,0,0,1,1.46,4.45,6.8,6.8,0,0,1-1.46,4.47,5.27,5.27,0,0,1-4.22,1.84A5.21,5.21,0,0,1,144,70.68a7.45,7.45,0,0,1,0-8.91,5.72,5.72,0,0,1,8.43,0Zm-7.94.41a6.06,6.06,0,0,0-1.31,4,6,6,0,0,0,1.31,4,5,5,0,0,0,7.43,0,6.91,6.91,0,0,0,0-8.09,5,5,0,0,0-7.43,0Z"/><path class="cls-3" d="M169.24,60.16V72.3h-.66V60.16Z"/><path class="cls-3" d="M176.21,60.16,184.1,71.4h0V60.16h.66V72.3H184L176.06,61h0V72.3h-.66V60.16Z"/><path class="cls-3" d="M199.72,60.16v.61H195.1V72.3h-.66V60.78h-4.66v-.61Z"/><path class="cls-3" d="M209.73,60.16a4.13,4.13,0,0,1,2.77.85,3,3,0,0,1,1,2.41,3.14,3.14,0,0,1-.61,1.94,3,3,0,0,1-1.77,1.05v0a2.42,2.42,0,0,1,2.12,2.29l.15,1.77a3.9,3.9,0,0,0,.53,1.79h-.73a4.32,4.32,0,0,1-.44-1.67l-.15-1.75a2.06,2.06,0,0,0-.92-1.68,3.64,3.64,0,0,0-2-.46h-4.35V72.3h-.66V60.16Zm-4.37,6h4.33a3.38,3.38,0,0,0,2.36-.77,2.52,2.52,0,0,0,.78-1.92,2.58,2.58,0,0,0-.73-2,3.58,3.58,0,0,0-2.43-.7h-4.32Z"/><path class="cls-3" d="M228.59,61.78A6.69,6.69,0,0,1,230,66.23a6.8,6.8,0,0,1-1.46,4.47,5.27,5.27,0,0,1-4.22,1.84,5.21,5.21,0,0,1-4.22-1.85,7.45,7.45,0,0,1,0-8.91,5.72,5.72,0,0,1,8.43,0Zm-7.94.41a6.06,6.06,0,0,0-1.31,4,6,6,0,0,0,1.31,4,5,5,0,0,0,7.43,0,6.91,6.91,0,0,0,0-8.09,5,5,0,0,0-7.43,0Z"/><path class="cls-3" d="M239.72,60.16a5,5,0,0,1,4.18,1.72,6.64,6.64,0,0,1,1.27,4.35,6.31,6.31,0,0,1-1.46,4.37,5.54,5.54,0,0,1-4.3,1.7h-4V60.16Zm-3.6,11.52h3.23a5,5,0,0,0,3.86-1.5,5.74,5.74,0,0,0,1.31-4,6.3,6.3,0,0,0-1.09-4,4.58,4.58,0,0,0-3.76-1.48h-3.55Z"/><path class="cls-3" d="M251.25,60.16v7.41a4.75,4.75,0,0,0,.9,3.16,4.46,4.46,0,0,0,6.07,0,4.83,4.83,0,0,0,.9-3.16V60.16h.66v7.39a5.42,5.42,0,0,1-1.07,3.62,5.28,5.28,0,0,1-7.05,0,5.5,5.5,0,0,1-1.07-3.64V60.16Z"/><path class="cls-3" d="M274.13,60.95a3.94,3.94,0,0,1,1.68,2.84h-.65a3.4,3.4,0,0,0-1.46-2.38,5,5,0,0,0-6.56.83,6.26,6.26,0,0,0-1.29,4.06,6,6,0,0,0,1.29,4,4.45,4.45,0,0,0,3.62,1.62,4.74,4.74,0,0,0,2.87-.9,4.58,4.58,0,0,0,1.7-2.82H276a5.08,5.08,0,0,1-5.22,4.35,5.11,5.11,0,0,1-4.13-1.85,6.59,6.59,0,0,1-1.44-4.38,6.73,6.73,0,0,1,1.46-4.45,5.17,5.17,0,0,1,4.27-1.92A5.25,5.25,0,0,1,274.13,60.95Z"/><path class="cls-3" d="M290.4,60.16v.61h-4.62V72.3h-.66V60.78h-4.66v-.61Z"/><path class="cls-3" d="M296.26,60.16V72.3h-.66V60.16Z"/><path class="cls-3" d="M311.78,61.78a6.69,6.69,0,0,1,1.46,4.45,6.8,6.8,0,0,1-1.46,4.47,5.27,5.27,0,0,1-4.22,1.84,5.21,5.21,0,0,1-4.22-1.85,7.45,7.45,0,0,1,0-8.91,5.72,5.72,0,0,1,8.43,0Zm-7.94.41a6.06,6.06,0,0,0-1.31,4,6,6,0,0,0,1.31,4,5,5,0,0,0,7.43,0,6.91,6.91,0,0,0,0-8.09,5,5,0,0,0-7.43,0Z"/><path class="cls-3" d="M319.5,60.16l7.89,11.24h0V60.16h.66V72.3h-.82L319.35,61h0V72.3h-.66V60.16Z"/><path class="cls-4" d="M206,105.6h9l-4.48,7.76Z"/></g></g></svg>