<svg xmlns="http://www.w3.org/2000/svg" viewBox="0 0 418.2 113.35"><defs><style>.cls-1,.cls-2{fill:none;stroke-miterlimit:10;}.cls-1{stroke:#b18855;}.cls-2{stroke:#cf1126;}.cls-3{fill:#b18855;}.cls-4{fill:#cf1126;}.cls-5{fill:#fff;}</style></defs><title>svg05</title><g id="圖層_2" data-name="圖層 2"><g id="圖層_1-2" data-name="圖層 1"><line class="cls-1" x1="200.23" y1="46.5" x2="418.2" y2="46.5"/><line class="cls-2" y1="46.5" x2="200.23" y2="46.5"/><polygon class="cls-3" points="318.34 0 225.19 0 200.23 47 318.34 47 318.34 0"/><polygon class="cls-4" points="104.27 47 200.26 47 225.22 0 104.27 0 104.27 47"/><path class="cls-5" d="M142.41,23.74c-1.15.61-2.34,1.19-3.53,1.73v10c0,2.45-1.26,3.67-3.71,3.67H132l-.86-3.63a19.13,19.13,0,0,0,2.77.22,1.1,1.1,0,0,0,1.22-1.22V27c-1.33.5-2.66,1-4,1.44l-.94-3.82a39.41,39.41,0,0,0,5-1.44V16h-4.57V12.33h4.57V6.24h3.78v6.08h3.56V16h-3.56v5.76c1.19-.58,2.38-1.15,3.53-1.8Zm19.4,15.37H158V37.7H147.56v1.51h-3.74v-28h5.58a40,40,0,0,0,.94-5.11l3.82.54a31.77,31.77,0,0,1-1,4.57h8.68ZM158,22.44V14.81H147.56v7.63ZM158,34V26.11H147.56V34Z"/><path class="cls-5" d="M167.58,39.11l-.79-3.53a14.79,14.79,0,0,0,2.41.25q1,0,1-1.19V26.26c-1.08.4-2.16.76-3.24,1.12l-.9-3.63a35.61,35.61,0,0,0,4.14-1.15V15.35h-3.46v-3.6h3.46V6.24h3.6v5.51h3.13v3.6h-3.13v5.83c1-.43,1.94-.94,2.88-1.44v3.71c-.94.47-1.91.94-2.88,1.37V35.54c0,2.38-1.12,3.56-3.31,3.56Zm9.65-13.93V22.3h10.62v2.88h-.79V39.5h-3V37.09c-2.27.36-4.64.65-7.13.9l-.76-2.77c.72-.07,1.4-.11,2.05-.18V25.18Zm20.63-18V10h-2.3v7.67h2.77V20.5h-2.77v1.26h-3.42V20.5H177.77V17.69h2.7V10h-2.2V7.21Zm-16.59,18v1.51h2.84V25.18Zm2.84,5.36V29h-2.84v1.55Zm0,3.78V32.81h-2.84v1.91C182.19,34.61,183.17,34.46,184.1,34.32Zm8-23.18V10h-8.31v1.12Zm0,3.28V13.26h-8.31v1.15Zm0,3.28V16.54h-8.31v1.15Zm-3.6,7.49V22.3h10.33v2.88h-1V34h1.37v3h-1.37V39.5h-3V37H188V34h1.3V25.18Zm3.56,0v1.4h2.81v-1.4Zm2.81,5.11v-1.4h-2.81v1.4Zm0,3.74V32.56h-2.81V34Z"/><path class="cls-5" d="M227.38,31l-1.15-3.74A31,31,0,0,0,235,15.53l3.38,1.62a28,28,0,0,1-2.7,5V39.54h-3.82V26.87A44.69,44.69,0,0,1,227.38,31Zm7-22V6h3.71V9H242v3.53H238.1v2.66h-3.71V12.54h-7.34V9ZM246.2,38.89c-2.63,0-3.92-1.37-3.92-4.07V16.14h3.82v6.8l11.52-.76v3.53l-11.52.72V34c0,.94.4,1.4,1.22,1.4h6.08a1.86,1.86,0,0,0,1.58-.72c.4-.5.65-2.05.79-4.61l3.56,1.12c-.36,3.78-.9,6-1.69,6.69a5.53,5.53,0,0,1-3.56,1ZM251.06,6V9h7.34v3.53h-7.34v2.66h-3.71V12.54h-3.89V9h3.89V6Z"/><path class="cls-5" d="M274.57,34.57A41.09,41.09,0,0,1,264.31,39l-1.55-3.17a35.51,35.51,0,0,0,9.72-3.6ZM273,6.6c-.29.79-.61,1.55-.94,2.27h6.7v3.06a11.81,11.81,0,0,1-2.84,4.43c1.19.47,2.34,1,3.46,1.48l-1.12,1.58,1.91,1.4a46.06,46.06,0,0,1-5.51,3.06c1.94-.11,3.85-.18,5.8-.25,1.48-.83,3-1.69,4.5-2.63l3.13,2.09A63.82,63.82,0,0,1,274.61,29q6.48-.27,12.63-.65c-.68-.65-1.37-1.3-2.09-1.94l2.77-1.73a60.36,60.36,0,0,1,6.48,6.48l-2.81,1.94c-.58-.76-1.22-1.51-1.91-2.27l-9,.54v4.43c0,2.3-1.22,3.49-3.64,3.49H274l-.79-3.67a17.39,17.39,0,0,0,2.63.25c.72,0,1.12-.36,1.12-1V31.58c-4.32.18-8.31.32-12,.43l-.76-3.28c1.08.07,2.12.11,3.17.11a45.23,45.23,0,0,0,8-2.66l-7.77.29-.65-3a11.07,11.07,0,0,0,3.24-.36A51.46,51.46,0,0,0,276,19.89q-1.35-.65-2.92-1.3A33,33,0,0,1,264.78,22l-1.84-2.88A45.92,45.92,0,0,0,269.13,17c-1.37-.54-2.84-1.08-4.39-1.58q1.13-1.78,2.05-3.35h-3.28V8.87h5c.43-.94.79-1.84,1.08-2.66Zm2.2,5.51h-4.86q-.54.92-1.19,1.84c1.15.36,2.27.72,3.35,1.12A9.75,9.75,0,0,0,275.22,12.11ZM293,8.22V19.81H280.76V8.22ZM294.51,36l-1.87,3a51.94,51.94,0,0,0-10.44-4.5L284,31.87A58.47,58.47,0,0,1,294.51,36Zm-4.93-24.58h-5.4v5.11h5.4Z"/><path class="cls-4" d="M103.78,60.16a3.91,3.91,0,0,1,2.5.76,2.77,2.77,0,0,1,1,2.28,2.72,2.72,0,0,1-.65,1.8,3,3,0,0,1-1.56,1A3.23,3.23,0,0,1,107,67a2.9,2.9,0,0,1,.75,2,3,3,0,0,1-1.22,2.57,4.89,4.89,0,0,1-2.86.76H98.51V60.16ZM99.17,65.7h4.5a3.33,3.33,0,0,0,2.09-.63,2.21,2.21,0,0,0,.85-1.84,2.25,2.25,0,0,0-.83-1.87,3.39,3.39,0,0,0-2.12-.59H99.17Zm0,6h4.59a4,4,0,0,0,2.33-.61,2.42,2.42,0,0,0,1-2.09,2.37,2.37,0,0,0-1-2,4.1,4.1,0,0,0-2.38-.63H99.17Z"/><path class="cls-4" d="M121.57,60.16v.61h-7.75v4.91h7.36v.61h-7.36v5.39h8v.61h-8.7V60.16Z"/><path class="cls-4" d="M127.93,60.16v5.52H136V60.16h.66V72.3H136v-6h-8.07v6h-.66V60.16Z"/><path class="cls-4" d="M143.49,60.16V72.3h-.66V60.16Z"/><path class="cls-4" d="M150.46,60.16l7.89,11.24h0V60.16H159V72.3h-.82L150.3,61h0V72.3h-.66V60.16Z"/><path class="cls-4" d="M169.22,60.16a5,5,0,0,1,4.18,1.72,6.64,6.64,0,0,1,1.27,4.35,6.31,6.31,0,0,1-1.46,4.37,5.54,5.54,0,0,1-4.3,1.7h-4V60.16Zm-3.6,11.52h3.23a5,5,0,0,0,3.86-1.5,5.74,5.74,0,0,0,1.31-4,6.3,6.3,0,0,0-1.09-4,4.58,4.58,0,0,0-3.76-1.48h-3.55Z"/><path class="cls-3" d="M198.16,60.16v.61h-4.62V72.3h-.66V60.78h-4.66v-.61Z"/><path class="cls-3" d="M203.8,60.16v5.52h8.07V60.16h.66V72.3h-.66v-6H203.8v6h-.66V60.16Z"/><path class="cls-3" d="M226.89,60.16v.61h-7.75v4.91h7.36v.61h-7.36v5.39h8v.61h-8.7V60.16Z"/><path class="cls-3" d="M248.56,60.93a3.94,3.94,0,0,1,1.33,2.82h-.66a3.62,3.62,0,0,0-1.12-2.38,3.85,3.85,0,0,0-2.63-.83,4.54,4.54,0,0,0-2.53.59,2.06,2.06,0,0,0-1,1.89,2,2,0,0,0,1.28,1.77,13.94,13.94,0,0,0,2.43.82,13.66,13.66,0,0,1,3.09,1.12,2.91,2.91,0,0,1,.17,5,5.64,5.64,0,0,1-3.21.85,4.86,4.86,0,0,1-3.23-1A4.46,4.46,0,0,1,241,68.29h.65a3.85,3.85,0,0,0,1.28,2.77,4.19,4.19,0,0,0,2.75.85,5,5,0,0,0,2.79-.71,2.23,2.23,0,0,0,1.09-1.92,2.32,2.32,0,0,0-1.29-2.09,12.49,12.49,0,0,0-2.8-1,17.17,17.17,0,0,1-2.79-1A2.42,2.42,0,0,1,241.24,63a2.59,2.59,0,0,1,1.31-2.36,5.14,5.14,0,0,1,2.94-.75A4.41,4.41,0,0,1,248.56,60.93Z"/><path class="cls-3" d="M263.85,60.95a3.94,3.94,0,0,1,1.68,2.84h-.65a3.4,3.4,0,0,0-1.46-2.38,5,5,0,0,0-6.56.83,6.26,6.26,0,0,0-1.29,4.06,6,6,0,0,0,1.29,4,4.45,4.45,0,0,0,3.62,1.62,4.74,4.74,0,0,0,2.87-.9,4.58,4.58,0,0,0,1.7-2.82h.65a5.08,5.08,0,0,1-5.22,4.35,5.11,5.11,0,0,1-4.13-1.85,6.59,6.59,0,0,1-1.44-4.38,6.73,6.73,0,0,1,1.46-4.45,5.17,5.17,0,0,1,4.27-1.92A5.25,5.25,0,0,1,263.85,60.95Z"/><path class="cls-3" d="M279.52,60.16v.61h-7.75v4.91h7.36v.61h-7.36v5.39h8v.61h-8.7V60.16Z"/><path class="cls-3" d="M286.06,60.16,294,71.4h0V60.16h.66V72.3h-.82L285.91,61h0V72.3h-.66V60.16Z"/><path class="cls-3" d="M309,60.16v.61h-7.75v4.91h7.36v.61h-7.36v5.39h8v.61h-8.7V60.16Z"/><path class="cls-3" d="M321.59,60.93a3.94,3.94,0,0,1,1.33,2.82h-.66a3.62,3.62,0,0,0-1.12-2.38,3.85,3.85,0,0,0-2.63-.83,4.54,4.54,0,0,0-2.53.59,2.06,2.06,0,0,0-1,1.89,2,2,0,0,0,1.28,1.77,13.94,13.94,0,0,0,2.43.82,13.66,13.66,0,0,1,3.09,1.12,2.91,2.91,0,0,1,.17,5,5.64,5.64,0,0,1-3.21.85,4.86,4.86,0,0,1-3.23-1A4.46,4.46,0,0,1,314,68.29h.65a3.85,3.85,0,0,0,1.28,2.77,4.19,4.19,0,0,0,2.75.85,5,5,0,0,0,2.79-.71,2.23,2.23,0,0,0,1.09-1.92,2.32,2.32,0,0,0-1.29-2.09,12.49,12.49,0,0,0-2.8-1,17.17,17.17,0,0,1-2.79-1A2.42,2.42,0,0,1,314.27,63a2.59,2.59,0,0,1,1.31-2.36,5.14,5.14,0,0,1,2.94-.75A4.41,4.41,0,0,1,321.59,60.93Z"/><path class="cls-4" d="M206,105.6h9l-4.48,7.76Z"/></g></g></svg>