<svg xmlns="http://www.w3.org/2000/svg" viewBox="0 0 90 90"><defs><style>.cls-1{fill:#b18855;}.cls-2{fill:none;}</style></defs><title>svg10</title><g id="圖層_2" data-name="圖層 2"><g id="圖層_1-2" data-name="圖層 1"><path class="cls-1" d="M69.13,45.78c-.21-.52-2.92-4.48-3.44-6.46a13.39,13.39,0,0,1-.42-2,62.36,62.36,0,0,1-.62-7.71c-.31-5.83-.52-11.87,1.87-17.08A14.94,14.94,0,0,0,68,9a.52.52,0,0,0-.52-.62H50.8a.55.55,0,0,0-.52.73,21.89,21.89,0,0,1,1.15,8.23c-.31.1-.42-2.92-.73-3.54a2.76,2.76,0,0,0-1.87-2,4.45,4.45,0,0,0-2.6.1,1.15,1.15,0,0,0-.62.31,2.18,2.18,0,0,0-.42.62A3,3,0,0,0,46,16a5.72,5.72,0,0,0,1.87,1.35h-.42a4.32,4.32,0,0,0-1.56.21A2.56,2.56,0,0,0,44,20a3,3,0,0,0,1.77,2.19,4.53,4.53,0,0,0,2.08.73h.42A2.91,2.91,0,0,0,50.38,22,5.52,5.52,0,0,0,51,21l.1-.21c.1-.1.1-.21.21-.42a30.52,30.52,0,0,1-.52,3c0,.21.1.42.31.42h1.77c.1,0,.21,0,.21-.1a1.34,1.34,0,0,1,1-.42,1.46,1.46,0,1,1,0,2.92,1.59,1.59,0,0,1-1-.42c-.1-.1-.1-.1-.21-.1H50.69c-.1,0-.31.1-.31.21a31.16,31.16,0,0,1-.83,3.33c0,.21.1.42.31.42h2c.1,0,.21,0,.21-.1a1.34,1.34,0,0,1,1-.42,1.46,1.46,0,1,1,0,2.92,1.59,1.59,0,0,1-1-.42c-.1-.1-.1-.1-.21-.1H49.13c-.1,0-.31.1-.31.21a3.7,3.7,0,0,0-.21,1c-.21.83-.42,1.56-.62,2.4,0,.21.1.42.31.42h2.5c.1,0,.21,0,.21-.1a1.34,1.34,0,0,1,1-.42A1.46,1.46,0,1,1,52,38a1.59,1.59,0,0,1-1-.42c-.1-.1-.1-.1-.21-.1h-3c-.1,0-.31.1-.31.21-.21,1-.52,2-.73,3-.52,1.87-.94,3.85-1.56,5.73-.62,1.67-1.35,3.23-2,4.79a58.55,58.55,0,0,0-2.81,8.54,4.78,4.78,0,0,1-.73,1.67c-.1.1-.1.21-.21.31-4,9.48-16,13.75-16,13.75-7.6,4,.42,5.41.42,5.41h20.1a2.23,2.23,0,0,0,2-1.15l8-15.1c.1-.1.1-.21.21-.31,8.23-13,8.64,1.15,8.64,1.15V81.19a.45.45,0,0,0,.42.42h2.6a.45.45,0,0,0,.42-.42V66.71c.1-6.46,1.15-7.6,1.15-7.6A15.93,15.93,0,0,0,69.13,45.78ZM47.36,15a1.75,1.75,0,0,1-.42-1.35,2.77,2.77,0,0,1,1.56-.1,1.43,1.43,0,0,1,1,.83,2.76,2.76,0,0,1,.1,1.35v.42a.2.2,0,0,1-.31.1l-.21-.1A5.2,5.2,0,0,1,47.36,15Zm2.08,5.31-.1.21L49,21.1a1.27,1.27,0,0,1-.94.31,5.23,5.23,0,0,1-1.35-.52c-.73-.42-.83-.62-.83-.83s.31-.52.62-.62a3.54,3.54,0,0,1,1-.1h.83A4.32,4.32,0,0,0,50,19.12a.22.22,0,0,1,.21.21A1.32,1.32,0,0,0,49.44,20.27Zm5,.31a1.28,1.28,0,0,1-1-.52c-.1-.1-.1-.1-.21-.1H51.94a.2.2,0,0,1-.1-.31c0-.1.1-.1.21-.21a1.48,1.48,0,0,0,.21-.62c0-.1-.1-.21-.1-.42s0-.31.21-.31h.94c.1,0,.21,0,.21-.1a1.54,1.54,0,0,1,1.35-.42,1.34,1.34,0,0,1,1,1A1.55,1.55,0,0,1,54.44,20.58Z"/><rect class="cls-2" width="90" height="90"/></g></g></svg>